<?xml version="1.0" standalone="no"?>
<!DOCTYPE svg PUBLIC "-//W3C//DTD SVG 20010904//EN"
 "http://www.w3.org/TR/2001/REC-SVG-20010904/DTD/svg10.dtd">
<svg version="1.0" xmlns="http://www.w3.org/2000/svg"
 width="664.000000pt" height="664.000000pt" viewBox="0 0 664.000000 664.000000"
 preserveAspectRatio="xMidYMid meet">

<g transform="translate(0.000000,664.000000) scale(0.100000,-0.100000)"
fill="#000000" stroke="none">
<path d="M3578 5653 c-9 -10 -18 -27 -22 -39 -6 -20 -3 -27 72 -134 66 -96
157 -329 136 -350 -8 -8 -51 9 -145 55 -144 70 -247 101 -301 91 -76 -14 -127
-68 -114 -121 11 -41 46 -51 116 -32 82 23 99 22 182 -16 126 -57 293 -145
307 -161 10 -11 12 -47 9 -138 -5 -144 -25 -205 -89 -263 -55 -49 -100 -49
-166 3 -64 51 -166 163 -252 275 -83 110 -160 199 -203 235 -26 22 -42 27 -85
27 -49 0 -55 -3 -103 -50 -70 -67 -105 -121 -150 -224 -50 -116 -64 -206 -56
-357 l7 -122 -43 -25 c-24 -14 -65 -37 -92 -51 l-49 -26 -25 22 c-23 21 -180
178 -310 311 l-53 54 21 42 c28 52 94 110 179 157 36 20 74 44 84 52 25 22 21
68 -9 99 -21 20 -32 24 -60 20 -50 -8 -128 -64 -233 -168 l-93 -91 -35 34
c-20 18 -125 123 -234 233 l-199 200 -2 -1715 c-1 -943 -1 -1726 0 -1739 1
-13 5 -28 9 -32 8 -8 520 491 591 574 l32 39 0 634 c0 452 3 634 11 634 6 0
221 -209 477 -465 290 -290 473 -465 485 -465 22 0 1542 1514 1576 1570 21 34
21 44 21 500 l0 465 -795 -795 c-437 -437 -799 -796 -803 -798 -5 -1 -124 114
-266 255 -263 263 -276 281 -220 292 10 2 25 12 32 22 27 39 63 24 124 -52 32
-39 80 -89 108 -111 163 -129 366 -91 458 87 33 65 37 178 8 240 -66 140 -211
219 -343 186 -26 -7 -81 -28 -121 -47 -96 -46 -106 -40 -97 60 3 39 11 94 17
121 12 56 78 189 118 237 33 39 55 33 106 -30 21 -26 96 -111 166 -189 219
-242 276 -284 387 -286 94 -2 173 58 230 175 33 67 67 232 57 274 -13 50 -2
54 103 48 120 -8 182 9 243 67 37 35 40 42 35 75 -10 63 -54 71 -145 25 -31
-16 -72 -32 -91 -36 -36 -8 -128 1 -149 14 -7 4 -26 60 -42 123 -57 222 -151
442 -213 494 -34 28 -78 31 -99 7z m-348 -1289 c43 -37 63 -80 63 -140 0 -119
-107 -188 -211 -135 -84 43 -182 163 -166 205 4 9 30 29 58 43 117 60 205 69
256 27z"/>
<path d="M2812 5383 c-66 -33 -83 -119 -33 -172 24 -26 36 -31 75 -31 55 0 89
20 106 60 38 91 -61 186 -148 143z"/>
<path d="M4653 3798 c-62 -62 -159 -160 -217 -217 -58 -58 -106 -112 -106
-121 0 -8 12 -23 28 -32 15 -9 58 -45 96 -80 l70 -63 360 0 c422 0 394 -10
326 121 -54 103 -138 219 -225 312 -72 77 -199 192 -213 192 -5 0 -58 -51
-119 -112z"/>
<path d="M3828 2936 c-6 -10 -12 -143 -16 -302 -4 -221 -2 -287 8 -299 11 -13
69 -15 451 -15 l439 0 0 -23 c0 -71 -137 -277 -255 -385 -211 -193 -554 -285
-841 -226 -185 38 -374 143 -500 277 -96 102 -125 144 -174 258 -22 52 -46
100 -53 107 -10 10 -58 -33 -242 -218 -127 -127 -231 -235 -233 -240 -5 -14
100 -172 168 -255 200 -242 477 -424 775 -510 181 -53 238 -60 460 -60 179 1
225 4 310 23 155 34 248 67 400 142 451 224 756 628 857 1134 26 133 31 413 9
533 l-13 73 -770 2 c-744 3 -770 2 -780 -16z"/>
</g>
</svg>
