<?xml version="1.0" encoding="UTF-8"?>
<!DOCTYPE svg PUBLIC "-//W3C//DTD SVG 1.1//EN" "http://www.w3.org/Graphics/SVG/1.1/DTD/svg11.dtd">
<svg xmlns="http://www.w3.org/2000/svg" version="1.1" width="664px" height="664px" style="shape-rendering:geometricPrecision; text-rendering:geometricPrecision; image-rendering:optimizeQuality; fill-rule:evenodd; clip-rule:evenodd" xmlns:xlink="http://www.w3.org/1999/xlink">
<g><path style="opacity:0.882" fill="#42355e" d="M 376.5,110.5 C 373.137,107.137 370.137,103.47 367.5,99.5C 363.82,98.2359 360.153,98.2359 356.5,99.5C 355.854,102.993 355.521,106.326 355.5,109.5C 351.453,104.796 351.786,100.296 356.5,96C 360.99,93.7642 365.156,94.2642 369,97.5C 372.155,101.48 374.655,105.814 376.5,110.5 Z"/></g>
<g><path style="opacity:1" fill="#533f79" d="M 376.5,110.5 C 377.579,115.334 379.245,120.001 381.5,124.5C 380.833,124.833 380.167,125.167 379.5,125.5C 381.327,127.487 382.327,129.821 382.5,132.5C 377.592,127.498 374.926,121.332 374.5,114C 373.335,109.487 370.835,105.987 367,103.5C 364.629,104.791 362.129,105.791 359.5,106.5C 360.991,107.244 362.491,107.91 364,108.5C 364.497,110.81 364.663,113.143 364.5,115.5C 362.974,114.895 361.974,113.729 361.5,112C 359.846,111.392 358.179,110.892 356.5,110.5C 355.833,110.5 355.5,110.167 355.5,109.5C 355.521,106.326 355.854,102.993 356.5,99.5C 360.153,98.2359 363.82,98.2359 367.5,99.5C 370.137,103.47 373.137,107.137 376.5,110.5 Z"/></g>
<g><path style="opacity:0.631" fill="#949494" d="M 145.5,123.5 C 147.833,125.167 149.833,127.167 151.5,129.5C 148.5,128.5 146.5,126.5 145.5,123.5 Z"/></g>
<g><path style="opacity:0.979" fill="#41355a" d="M 280.5,122.5 C 294.416,121.705 299.916,128.038 297,141.5C 292.824,147.112 287.324,148.945 280.5,147C 272.188,142.358 270.354,135.858 275,127.5C 276.812,125.7 278.645,124.033 280.5,122.5 Z"/></g>
<g><path style="opacity:1" fill="#fbfafb" d="M 484.5,123.5 C 486.493,156.817 487.16,190.483 486.5,224.5C 484.086,225.911 482.419,227.911 481.5,230.5C 480.178,230.33 479.011,230.663 478,231.5C 477.832,202.33 477.332,173.33 476.5,144.5C 475.167,144.5 474.5,145.167 474.5,146.5C 472.544,148.114 470.544,149.781 468.5,151.5C 466.833,151.5 465.167,151.5 463.5,151.5C 463.371,149.784 463.038,148.117 462.5,146.5C 465.902,143.105 468.902,139.438 471.5,135.5C 476.466,132.201 480.799,128.201 484.5,123.5 Z"/></g>
<g><path style="opacity:0.943" fill="#3f315a" d="M 376.5,110.5 C 379.832,116.507 382.666,122.84 385,129.5C 387.956,139.527 390.79,149.527 393.5,159.5C 392.5,159.5 391.5,159.5 390.5,159.5C 388.382,150.388 385.715,141.388 382.5,132.5C 382.327,129.821 381.327,127.487 379.5,125.5C 380.167,125.167 380.833,124.833 381.5,124.5C 379.245,120.001 377.579,115.334 376.5,110.5 Z"/></g>
<g><path style="opacity:1" fill="#fcfdfb" d="M 143.5,121.5 C 144.5,121.833 145.167,122.5 145.5,123.5C 146.5,126.5 148.5,128.5 151.5,129.5C 154.167,131.5 156.5,133.833 158.5,136.5C 160.427,139.767 162.761,142.767 165.5,145.5C 164.265,145.721 163.265,146.388 162.5,147.5C 161.378,146.37 160.044,145.703 158.5,145.5C 157.833,145.167 157.167,144.833 156.5,144.5C 155.506,154.653 155.172,164.986 155.5,175.5C 154.673,180.651 154.173,185.984 154,191.5C 153.833,238.667 153.667,285.833 153.5,333C 153.526,383.948 153.859,434.781 154.5,485.5C 153.89,486.391 153.557,487.391 153.5,488.5C 153.167,488.5 152.833,488.5 152.5,488.5C 151.5,488.5 150.5,488.5 149.5,488.5C 149.85,491.453 148.85,493.787 146.5,495.5C 145.518,496.141 144.518,496.807 143.5,497.5C 142.168,372.001 142.168,246.667 143.5,121.5 Z"/></g>
<g><path style="opacity:1" fill="#533e7c" d="M 283.5,125.5 C 291.512,126.212 295.345,130.546 295,138.5C 293.122,140.043 291.622,141.876 290.5,144C 289.271,144.781 287.938,145.281 286.5,145.5C 283.388,143.887 280.055,142.887 276.5,142.5C 275.632,138.192 275.466,133.859 276,129.5C 276.374,128.584 276.874,127.75 277.5,127C 279.708,126.809 281.708,126.309 283.5,125.5 Z"/></g>
<g><path style="opacity:0.592" fill="#8f9090" d="M 158.5,136.5 C 166.833,144.167 174.833,152.167 182.5,160.5C 176.556,155.894 170.89,150.894 165.5,145.5C 162.761,142.767 160.427,139.767 158.5,136.5 Z"/></g>
<g><path style="opacity:1" fill="#453863" d="M 356.5,110.5 C 358.179,110.892 359.846,111.392 361.5,112C 361.974,113.729 362.974,114.895 364.5,115.5C 367.999,118.003 369.333,121.337 368.5,125.5C 372.394,130.84 374.727,136.84 375.5,143.5C 376.086,143.709 376.586,144.043 377,144.5C 377.874,147.379 377.54,150.045 376,152.5C 369.628,152.229 364.461,149.729 360.5,145C 353.895,141.541 346.895,138.874 339.5,137C 331.217,134.812 325.217,137.479 321.5,145C 322.594,148.1 324.761,149.6 328,149.5C 335.293,146.68 342.459,146.846 349.5,150C 351.552,153.529 354.552,155.862 358.5,157C 359.252,157.671 359.586,158.504 359.5,159.5C 352.047,154.109 343.714,151.609 334.5,152C 330.113,153.965 325.78,154.298 321.5,153C 316.623,148.688 316.29,144.021 320.5,139C 324.515,135.907 329.015,134.074 334,133.5C 348.278,136.3 361.612,141.633 374,149.5C 371.445,135.054 365.612,122.054 356.5,110.5 Z"/></g>
<g><path style="opacity:1" fill="#533e7c" d="M 382.5,132.5 C 385.715,141.388 388.382,150.388 390.5,159.5C 391.5,159.5 392.5,159.5 393.5,159.5C 393.791,160.649 394.624,161.316 396,161.5C 400.471,162.513 404.971,162.679 409.5,162C 415.33,158.118 421.663,156.452 428.5,157C 430.362,160.149 431.029,163.649 430.5,167.5C 430.5,168.833 429.833,169.5 428.5,169.5C 424.128,169.243 420.128,170.743 416.5,174C 411.313,174.637 406.146,174.471 401,173.5C 391.321,175.006 388.155,180.506 391.5,190C 390.333,191.833 389.167,193.667 388,195.5C 387.466,200.478 386.8,205.145 386,209.5C 382.716,214.052 378.883,218.052 374.5,221.5C 371.145,222.089 367.978,223.089 365,224.5C 359.221,223.272 354.387,221.439 350.5,219C 345.48,212.986 339.814,207.653 333.5,203C 331.783,201.441 329.783,200.608 327.5,200.5C 327.011,197.533 325.845,194.867 324,192.5C 319.362,187.285 314.695,181.951 310,176.5C 308.991,174.975 308.491,173.308 308.5,171.5C 305.574,170.539 302.574,169.873 299.5,169.5C 301.912,167.838 304.746,166.838 308,166.5C 309.613,167.622 310.78,167.122 311.5,165C 311.491,163.27 311.158,161.437 310.5,159.5C 307.984,158.67 305.65,157.67 303.5,156.5C 306.313,156.548 308.979,157.215 311.5,158.5C 314.52,161.189 317.52,163.856 320.5,166.5C 321.241,169.634 322.241,172.634 323.5,175.5C 324.5,175.5 325.5,175.5 326.5,175.5C 327.819,183.422 332.152,189.088 339.5,192.5C 341.638,198.309 345.638,201.976 351.5,203.5C 354.145,206.158 356.478,209.158 358.5,212.5C 362.442,213.6 366.442,213.767 370.5,213C 375.179,209.412 378.679,204.912 381,199.5C 381.667,189.833 381.667,180.167 381,170.5C 380.362,169.391 379.862,168.225 379.5,167C 375.465,164.863 371.465,162.529 367.5,160C 365.19,159.503 362.857,159.337 360.5,159.5C 360.167,159.5 359.833,159.5 359.5,159.5C 359.586,158.504 359.252,157.671 358.5,157C 354.552,155.862 351.552,153.529 349.5,150C 342.459,146.846 335.293,146.68 328,149.5C 324.761,149.6 322.594,148.1 321.5,145C 325.217,137.479 331.217,134.812 339.5,137C 346.895,138.874 353.895,141.541 360.5,145C 364.461,149.729 369.628,152.229 376,152.5C 377.54,150.045 377.874,147.379 377,144.5C 376.586,144.043 376.086,143.709 375.5,143.5C 374.727,136.84 372.394,130.84 368.5,125.5C 369.333,121.337 367.999,118.003 364.5,115.5C 364.663,113.143 364.497,110.81 364,108.5C 362.491,107.91 360.991,107.244 359.5,106.5C 362.129,105.791 364.629,104.791 367,103.5C 370.835,105.987 373.335,109.487 374.5,114C 374.926,121.332 377.592,127.498 382.5,132.5 Z"/></g>
<g><path style="opacity:0.103" fill="#535353" d="M 487.5,223.5 C 487.667,189.498 487.5,155.498 487,121.5C 486.005,122.066 485.172,122.733 484.5,123.5C 480.799,128.201 476.466,132.201 471.5,135.5C 475.663,131.169 479.663,126.669 483.5,122C 485.025,120.991 486.692,120.491 488.5,120.5C 488.832,155.004 488.498,189.337 487.5,223.5 Z"/></g>
<g><path style="opacity:1" fill="#f1edf1" d="M 158.5,145.5 C 160.044,145.703 161.378,146.37 162.5,147.5C 163.265,146.388 164.265,145.721 165.5,145.5C 170.89,150.894 176.556,155.894 182.5,160.5C 184.5,164.5 187.5,167.5 191.5,169.5C 192.833,172.833 195.167,175.167 198.5,176.5C 201.167,178.833 203.833,181.167 206.5,183.5C 206.401,186.639 205.068,188.973 202.5,190.5C 195.486,183.756 188.486,177.089 181.5,170.5C 175.936,163.726 169.936,157.392 163.5,151.5C 161.14,150.135 159.473,148.135 158.5,145.5 Z"/></g>
<g><path style="opacity:1" fill="#331d4f" d="M 181.5,170.5 C 188.486,177.089 195.486,183.756 202.5,190.5C 202.5,190.833 202.5,191.167 202.5,191.5C 200.71,193.272 199.377,195.272 198.5,197.5C 198.649,196.448 198.483,195.448 198,194.5C 196.429,196.923 194.263,198.256 191.5,198.5C 191.857,194.407 191.857,190.407 191.5,186.5C 187.999,185.507 185.166,183.507 183,180.5C 182.508,179.451 182.674,178.451 183.5,177.5C 179.887,172.187 175.221,168.02 169.5,165C 168.657,162.162 166.823,160.329 164,159.5C 163.667,159.833 163.333,160.167 163,160.5C 162.769,164.584 162.102,168.584 161,172.5C 160.5,275.499 160.333,378.499 160.5,481.5C 163.491,481.67 165.491,480.337 166.5,477.5C 167.325,476.614 168.325,476.281 169.5,476.5C 167.941,481.063 164.941,484.396 160.5,486.5C 159.5,382.835 159.167,279.169 159.5,175.5C 159.334,169.158 159.5,162.825 160,156.5C 162.242,155.825 164.409,156.325 166.5,158C 169.358,162.023 172.692,165.523 176.5,168.5C 178.075,169.456 179.742,170.123 181.5,170.5 Z"/></g>
<g><path style="opacity:1" fill="#4c3c6d" d="M 320.5,166.5 C 317.52,163.856 314.52,161.189 311.5,158.5C 308.979,157.215 306.313,156.548 303.5,156.5C 297.35,156.183 294.184,159.183 294,165.5C 290.67,166.383 288.336,168.383 287,171.5C 285.568,173.439 283.735,174.772 281.5,175.5C 278.656,175.343 276.989,176.676 276.5,179.5C 276.167,179.5 275.833,179.5 275.5,179.5C 279.556,170.577 285.223,162.743 292.5,156C 298.257,151.799 304.257,151.465 310.5,155C 314.439,158.429 317.772,162.263 320.5,166.5 Z"/></g>
<g><path style="opacity:1" fill="#533c7e" d="M 303.5,156.5 C 305.65,157.67 307.984,158.67 310.5,159.5C 311.158,161.437 311.491,163.27 311.5,165C 310.78,167.122 309.613,167.622 308,166.5C 304.746,166.838 301.912,167.838 299.5,169.5C 298.85,169.804 298.183,170.137 297.5,170.5C 296.657,173.93 295.324,176.93 293.5,179.5C 293.167,179.5 292.833,179.5 292.5,179.5C 289.594,175.584 286.094,174.918 282,177.5C 281.536,176.906 281.369,176.239 281.5,175.5C 283.735,174.772 285.568,173.439 287,171.5C 288.336,168.383 290.67,166.383 294,165.5C 294.184,159.183 297.35,156.183 303.5,156.5 Z"/></g>
<g><path style="opacity:1" fill="#51445d" d="M 476.5,144.5 C 476.5,174.167 476.5,203.833 476.5,233.5C 475.833,204.5 475.167,175.5 474.5,146.5C 474.5,145.167 475.167,144.5 476.5,144.5 Z"/></g>
<g><path style="opacity:0.573" fill="#929690" d="M 182.5,160.5 C 185.833,163.167 188.833,166.167 191.5,169.5C 187.5,167.5 184.5,164.5 182.5,160.5 Z"/></g>
<g><path style="opacity:0.814" fill="#3d3253" d="M 430.5,167.5 C 431.029,163.649 430.362,160.149 428.5,157C 421.663,156.452 415.33,158.118 409.5,162C 404.971,162.679 400.471,162.513 396,161.5C 394.624,161.316 393.791,160.649 393.5,159.5C 398.796,160.509 404.129,160.676 409.5,160C 413.683,157.743 418.016,155.743 422.5,154C 426.672,152.709 429.839,153.876 432,157.5C 432.667,160.5 432.667,163.5 432,166.5C 431.617,167.056 431.117,167.389 430.5,167.5 Z"/></g>
<g><path style="opacity:1" fill="#32184f" d="M 467.5,243.5 C 467.539,242.417 467.873,241.417 468.5,240.5C 467.758,239.713 466.925,239.047 466,238.5C 465.791,216.153 465.291,193.82 464.5,171.5C 464.167,170.167 463.833,168.833 463.5,167.5C 461.338,167.154 459.338,167.154 457.5,167.5C 457.414,166.504 457.748,165.671 458.5,165C 463.746,161.513 468.579,157.679 473,153.5C 473.667,181.167 473.667,208.833 473,236.5C 471.147,238.903 469.314,241.236 467.5,243.5 Z"/></g>
<g><path style="opacity:0.818" fill="#3d3557" d="M 237.5,181.5 C 238.419,178.911 240.086,176.911 242.5,175.5C 244.924,170.037 243.257,166.704 237.5,165.5C 235.578,165.801 233.912,166.467 232.5,167.5C 228.35,168.773 224.35,170.44 220.5,172.5C 225.132,167.561 230.799,164.227 237.5,162.5C 246.461,165.573 248.461,171.073 243.5,179C 241.593,180.122 239.593,180.955 237.5,181.5 Z"/></g>
<g><path style="opacity:1" fill="#4d3e6f" d="M 237.5,181.5 C 230.656,185.114 224.656,189.947 219.5,196C 220.252,196.671 220.586,197.504 220.5,198.5C 217.298,196.799 215.298,197.799 214.5,201.5C 215.193,202.518 215.859,203.518 216.5,204.5C 215.391,204.443 214.391,204.11 213.5,203.5C 213.167,203.5 212.833,203.5 212.5,203.5C 212.808,199.038 214.641,195.371 218,192.5C 218.483,191.552 218.649,190.552 218.5,189.5C 221.595,189.374 223.428,187.707 224,184.5C 229.252,180.295 234.918,176.961 241,174.5C 241.808,172.421 241.641,170.421 240.5,168.5C 237.916,167.607 235.249,167.274 232.5,167.5C 233.912,166.467 235.578,165.801 237.5,165.5C 243.257,166.704 244.924,170.037 242.5,175.5C 240.086,176.911 238.419,178.911 237.5,181.5 Z"/></g>
<g><path style="opacity:1" fill="#311955" d="M 198.5,197.5 C 186.272,216.092 182.106,236.425 186,258.5C 188.219,263.667 190.719,268.667 193.5,273.5C 200.767,278.848 208.767,280.015 217.5,277C 223.988,274.586 230.321,271.92 236.5,269C 244,263.082 252,257.915 260.5,253.5C 260.833,253.5 261.167,253.5 261.5,253.5C 261.67,259.177 264.17,263.51 269,266.5C 269.414,266.043 269.914,265.709 270.5,265.5C 271.245,267.747 272.578,269.58 274.5,271C 278.904,271.568 281.57,274.068 282.5,278.5C 287.684,279.246 291.017,282.079 292.5,287C 294.256,287.202 295.922,287.702 297.5,288.5C 301.869,293.2 306.202,297.866 310.5,302.5C 311.689,303.429 313.022,303.762 314.5,303.5C 315.097,304.139 315.93,304.472 317,304.5C 319.5,304 322,303.5 324.5,303C 326.613,298.386 329.946,294.886 334.5,292.5C 335.167,290.833 335.833,289.167 336.5,287.5C 343.11,283.891 348.444,278.891 352.5,272.5C 356.146,270.854 358.813,268.187 360.5,264.5C 364.585,263.147 367.251,260.481 368.5,256.5C 372.585,254.73 375.585,251.73 377.5,247.5C 381.566,246.402 383.566,243.735 383.5,239.5C 386.73,239.439 388.563,237.772 389,234.5C 393.813,231.907 396.98,227.907 398.5,222.5C 400.865,221.992 403.199,221.325 405.5,220.5C 407.474,216.692 410.308,213.692 414,211.5C 414.333,210.5 414.667,209.5 415,208.5C 419.503,206.258 422.336,202.592 423.5,197.5C 427.901,197.58 430.568,195.413 431.5,191C 435.788,190.944 438.288,188.777 439,184.5C 443.184,183.097 446.017,180.43 447.5,176.5C 449.078,175.702 450.744,175.202 452.5,175C 453.665,172.098 455.331,169.598 457.5,167.5C 459.338,167.154 461.338,167.154 463.5,167.5C 463.833,168.833 464.167,170.167 464.5,171.5C 465.291,193.82 465.791,216.153 466,238.5C 466.925,239.047 467.758,239.713 468.5,240.5C 467.873,241.417 467.539,242.417 467.5,243.5C 465.896,244.287 465.229,245.62 465.5,247.5C 462.702,248.1 460.035,249.1 457.5,250.5C 453.872,255.136 450.205,259.803 446.5,264.5C 443.443,265.39 441.609,267.39 441,270.5C 438.022,272.311 435.522,274.644 433.5,277.5C 428.892,278.94 425.726,281.94 424,286.5C 421.545,289.077 418.878,291.411 416,293.5C 413.468,296.37 411.301,299.537 409.5,303C 404.908,305.256 401.241,308.589 398.5,313C 397.216,313.684 396.049,313.517 395,312.5C 391.491,320.236 385.991,326.902 378.5,332.5C 377.614,333.325 377.281,334.325 377.5,335.5C 376.325,335.281 375.325,335.614 374.5,336.5C 372.167,339.5 369.5,342.167 366.5,344.5C 364.929,345.309 363.262,345.643 361.5,345.5C 359.561,349.596 357.061,353.263 354,356.5C 350.452,358.127 347.452,360.461 345,363.5C 343.408,367.572 341.241,371.239 338.5,374.5C 336.172,376.3 333.505,377.467 330.5,378C 328.012,383.5 324.346,388.166 319.5,392C 317.365,392.635 315.365,392.301 313.5,391C 311.672,388.503 309.672,386.17 307.5,384C 306.207,383.51 304.873,383.343 303.5,383.5C 303.808,381.076 303.474,378.743 302.5,376.5C 299.637,373.586 296.637,370.92 293.5,368.5C 291.922,367.702 290.256,367.202 288.5,367C 287.773,365.601 287.273,364.101 287,362.5C 286.586,362.957 286.086,363.291 285.5,363.5C 284.692,358.878 282.192,355.544 278,353.5C 277.727,351.671 276.893,350.171 275.5,349C 276.167,348 276.833,347 277.5,346C 274.816,344.58 272.149,344.08 269.5,344.5C 266.663,339.977 262.663,337.143 257.5,336C 256.283,334.352 255.45,332.519 255,330.5C 250.663,327.576 246.829,324.076 243.5,320C 242.207,319.51 240.873,319.343 239.5,319.5C 239.5,319.167 239.5,318.833 239.5,318.5C 237.555,316.03 235.722,313.363 234,310.5C 230.341,307.954 226.841,305.287 223.5,302.5C 222.829,301.153 222.829,299.986 223.5,299C 222.328,298.647 221.162,298.813 220,299.5C 218.278,299.389 218.112,298.889 219.5,298C 218.004,297.493 216.837,297.993 216,299.5C 214.372,305.778 214.539,311.944 216.5,318C 215.682,355.481 215.182,392.981 215,430.5C 208.303,437.25 201.47,443.917 194.5,450.5C 193.548,452.045 193.215,453.712 193.5,455.5C 190.692,456.103 188.026,457.103 185.5,458.5C 180.075,464.516 174.742,470.516 169.5,476.5C 168.325,476.281 167.325,476.614 166.5,477.5C 165.491,480.337 163.491,481.67 160.5,481.5C 160.333,378.499 160.5,275.499 161,172.5C 162.102,168.584 162.769,164.584 163,160.5C 163.333,160.167 163.667,159.833 164,159.5C 166.823,160.329 168.657,162.162 169.5,165C 175.221,168.02 179.887,172.187 183.5,177.5C 182.674,178.451 182.508,179.451 183,180.5C 185.166,183.507 187.999,185.507 191.5,186.5C 191.857,190.407 191.857,194.407 191.5,198.5C 194.263,198.256 196.429,196.923 198,194.5C 198.483,195.448 198.649,196.448 198.5,197.5 Z M 316.5,226.5 C 324.914,229.994 328.081,236.327 326,245.5C 322.774,253.019 317.274,255.519 309.5,253C 304.378,249.71 299.711,245.877 295.5,241.5C 295.672,240.508 295.338,239.842 294.5,239.5C 293.395,237.287 293.395,235.12 294.5,233C 301.339,229.109 308.672,226.942 316.5,226.5 Z"/></g>
<g><path style="opacity:0.553" fill="#8d8d8d" d="M 191.5,169.5 C 194.167,171.5 196.5,173.833 198.5,176.5C 195.167,175.167 192.833,172.833 191.5,169.5 Z"/></g>
<g><path style="opacity:0.778" fill="#dbdbdb" d="M 487.5,223.5 C 487.5,223.833 487.5,224.167 487.5,224.5C 487.167,224.5 486.833,224.5 486.5,224.5C 487.16,190.483 486.493,156.817 484.5,123.5C 485.172,122.733 486.005,122.066 487,121.5C 487.5,155.498 487.667,189.498 487.5,223.5 Z"/></g>
<g><path style="opacity:1" fill="#321d47" d="M 159.5,175.5 C 159.167,279.169 159.5,382.835 160.5,486.5C 164.941,484.396 167.941,481.063 169.5,476.5C 174.742,470.516 180.075,464.516 185.5,458.5C 188.026,457.103 190.692,456.103 193.5,455.5C 188.394,460.779 183.394,466.279 178.5,472C 176.715,474.226 174.382,475.392 171.5,475.5C 169.659,481.344 165.992,485.677 160.5,488.5C 159.883,488.389 159.383,488.056 159,487.5C 158.167,383.333 158.334,279.333 159.5,175.5 Z"/></g>
<g><path style="opacity:1" fill="#ddd3e2" d="M 476.5,144.5 C 477.332,173.33 477.832,202.33 478,231.5C 479.011,230.663 480.178,230.33 481.5,230.5C 480.833,231.833 479.833,232.833 478.5,233.5C 477.833,233.833 477.167,234.167 476.5,234.5C 476.5,234.167 476.5,233.833 476.5,233.5C 476.5,203.833 476.5,174.167 476.5,144.5 Z"/></g>
<g><path style="opacity:0.043" fill="#1d1627" d="M 396.5,175.5 C 402.145,176.134 407.811,176.468 413.5,176.5C 407.756,177.883 402.09,177.55 396.5,175.5 Z"/></g>
<g><path style="opacity:0.49" fill="#7a7a7a" d="M 143.5,121.5 C 142.168,246.667 142.168,372.001 143.5,497.5C 144.518,496.807 145.518,496.141 146.5,495.5C 145.651,498.506 143.817,499.506 141,498.5C 140.377,373.137 140.377,247.804 141,122.5C 141.601,120.641 142.434,120.308 143.5,121.5 Z"/></g>
<g><path style="opacity:1" fill="#4e3f6c" d="M 232.5,167.5 C 232.047,168.458 231.381,169.292 230.5,170C 222.832,171.5 217.832,176 215.5,183.5C 213.32,185.09 210.987,186.424 208.5,187.5C 207.833,190.833 205.833,192.167 202.5,191.5C 202.5,191.167 202.5,190.833 202.5,190.5C 205.068,188.973 206.401,186.639 206.5,183.5C 211.148,179.857 215.815,176.19 220.5,172.5C 224.35,170.44 228.35,168.773 232.5,167.5 Z"/></g>
<g><path style="opacity:0.994" fill="#f3f2f3" d="M 462.5,146.5 C 463.038,148.117 463.371,149.784 463.5,151.5C 465.167,151.5 466.833,151.5 468.5,151.5C 453.192,166.475 438.192,181.808 423.5,197.5C 415.394,206.055 407.06,214.388 398.5,222.5C 371.134,248.533 344.467,275.2 318.5,302.5C 317.311,303.429 315.978,303.762 314.5,303.5C 314.631,302.761 314.464,302.094 314,301.5C 299.704,287.608 285.537,273.608 271.5,259.5C 269.5,256.5 267.5,253.5 265.5,250.5C 266.374,249.475 267.541,248.808 269,248.5C 270.981,249.65 272.814,250.984 274.5,252.5C 276.167,253.5 277.5,254.833 278.5,256.5C 280.167,260.167 282.833,262.833 286.5,264.5C 287.833,267.833 290.167,270.167 293.5,271.5C 294.833,272.167 295.833,273.167 296.5,274.5C 300.167,280.167 304.833,284.833 310.5,288.5C 311.5,288.833 312.167,289.5 312.5,290.5C 313.204,292.344 314.537,292.844 316.5,292C 318.706,289.963 320.706,287.797 322.5,285.5C 322.957,283.227 324.29,281.894 326.5,281.5C 330.234,278.769 333.234,275.436 335.5,271.5C 346.413,262.091 356.913,252.091 367,241.5C 367.464,240.906 367.631,240.239 367.5,239.5C 375.745,232.76 383.578,225.427 391,217.5C 391.464,216.906 391.631,216.239 391.5,215.5C 392.239,215.631 392.906,215.464 393.5,215C 416.368,191.965 439.368,169.132 462.5,146.5 Z"/></g>
<g><path style="opacity:1" fill="#38264d" d="M 474.5,146.5 C 475.167,175.5 475.833,204.5 476.5,233.5C 476.5,233.833 476.5,234.167 476.5,234.5C 476.657,235.873 476.49,237.207 476,238.5C 472.915,242.092 469.415,245.092 465.5,247.5C 465.229,245.62 465.896,244.287 467.5,243.5C 469.314,241.236 471.147,238.903 473,236.5C 473.667,208.833 473.667,181.167 473,153.5C 468.579,157.679 463.746,161.513 458.5,165C 457.748,165.671 457.414,166.504 457.5,167.5C 455.331,169.598 453.665,172.098 452.5,175C 450.744,175.202 449.078,175.702 447.5,176.5C 446.017,180.43 443.184,183.097 439,184.5C 438.288,188.777 435.788,190.944 431.5,191C 430.568,195.413 427.901,197.58 423.5,197.5C 438.192,181.808 453.192,166.475 468.5,151.5C 470.544,149.781 472.544,148.114 474.5,146.5 Z"/></g>
<g><path style="opacity:0.969" fill="#715487" d="M 275.5,179.5 C 275.833,179.5 276.167,179.5 276.5,179.5C 277.043,179.56 277.376,179.893 277.5,180.5C 276.708,183.126 276.041,185.792 275.5,188.5C 272.582,192.931 271.248,197.931 271.5,203.5C 270.833,204.833 270.167,206.167 269.5,207.5C 269.998,202.848 270.331,198.181 270.5,193.5C 271.079,188.362 272.746,183.695 275.5,179.5 Z"/></g>
<g><path style="opacity:1" fill="#3f335a" d="M 299.5,169.5 C 302.574,169.873 305.574,170.539 308.5,171.5C 308.491,173.308 308.991,174.975 310,176.5C 314.695,181.951 319.362,187.285 324,192.5C 325.845,194.867 327.011,197.533 327.5,200.5C 319.457,191.089 310.957,182.089 302,173.5C 300.674,174.799 299.34,176.132 298,177.5C 294.144,183.935 290.977,190.601 288.5,197.5C 290.113,191.526 291.78,185.526 293.5,179.5C 295.324,176.93 296.657,173.93 297.5,170.5C 298.183,170.137 298.85,169.804 299.5,169.5 Z"/></g>
<g><path style="opacity:1" fill="#342343" d="M 163.5,151.5 C 169.936,157.392 175.936,163.726 181.5,170.5C 179.742,170.123 178.075,169.456 176.5,168.5C 172.692,165.523 169.358,162.023 166.5,158C 164.409,156.325 162.242,155.825 160,156.5C 159.5,162.825 159.334,169.158 159.5,175.5C 158.334,279.333 158.167,383.333 159,487.5C 159.383,488.056 159.883,488.389 160.5,488.5C 161.568,489.434 162.901,489.768 164.5,489.5C 162.801,492.196 160.467,494.196 157.5,495.5C 155.465,494.403 154.132,492.737 153.5,490.5C 152.817,490.863 152.15,491.196 151.5,491.5C 151.557,490.391 151.89,489.391 152.5,488.5C 152.833,488.5 153.167,488.5 153.5,488.5C 154.5,487.833 155.5,487.167 156.5,486.5C 157.167,374.999 157.833,263.333 158.5,151.5C 160.128,150.465 161.795,150.465 163.5,151.5 Z"/></g>
<g><path style="opacity:0.95" fill="#433861" d="M 320.5,166.5 C 330.427,179.101 340.761,191.434 351.5,203.5C 345.638,201.976 341.638,198.309 339.5,192.5C 332.152,189.088 327.819,183.422 326.5,175.5C 325.5,175.5 324.5,175.5 323.5,175.5C 322.241,172.634 321.241,169.634 320.5,166.5 Z"/></g>
<g><path style="opacity:0.98" fill="#41345c" d="M 360.5,159.5 C 362.857,159.337 365.19,159.503 367.5,160C 371.465,162.529 375.465,164.863 379.5,167C 379.862,168.225 380.362,169.391 381,170.5C 381.667,180.167 381.667,189.833 381,199.5C 378.679,204.912 375.179,209.412 370.5,213C 366.442,213.767 362.442,213.6 358.5,212.5C 356.478,209.158 354.145,206.158 351.5,203.5C 354.603,205.423 357.603,207.59 360.5,210C 365.951,211.879 370.451,210.379 374,205.5C 376.243,201.777 377.91,197.777 379,193.5C 379.667,185.5 379.667,177.5 379,169.5C 372.692,166.265 366.525,162.932 360.5,159.5 Z"/></g>
<g><path style="opacity:0.416" fill="#7a7a7a" d="M 471.5,135.5 C 468.902,139.438 465.902,143.105 462.5,146.5C 439.368,169.132 416.368,191.965 393.5,215C 392.906,215.464 392.239,215.631 391.5,215.5C 417.833,188.5 444.5,161.833 471.5,135.5 Z"/></g>
<g><path style="opacity:1" fill="#f9f4f9" d="M 155.5,175.5 C 155.833,279.001 155.499,382.335 154.5,485.5C 153.859,434.781 153.526,383.948 153.5,333C 153.667,285.833 153.833,238.667 154,191.5C 154.173,185.984 154.673,180.651 155.5,175.5 Z"/></g>
<g><path style="opacity:1" fill="#d3c8da" d="M 156.5,144.5 C 156.5,258.5 156.5,372.5 156.5,486.5C 155.5,487.167 154.5,487.833 153.5,488.5C 153.557,487.391 153.89,486.391 154.5,485.5C 155.499,382.335 155.833,279.001 155.5,175.5C 155.172,164.986 155.506,154.653 156.5,144.5 Z"/></g>
<g><path style="opacity:1" fill="#453650" d="M 156.5,144.5 C 157.167,144.833 157.833,145.167 158.5,145.5C 159.473,148.135 161.14,150.135 163.5,151.5C 161.795,150.465 160.128,150.465 158.5,151.5C 157.833,263.333 157.167,374.999 156.5,486.5C 156.5,372.5 156.5,258.5 156.5,144.5 Z"/></g>
<g><path style="opacity:0.545" fill="#949595" d="M 220.5,198.5 C 224.167,201.5 227.5,204.833 230.5,208.5C 226.139,206.139 222.806,202.806 220.5,198.5 Z"/></g>
<g><path style="opacity:1" fill="#f0ebf1" d="M 220.5,198.5 C 222.806,202.806 226.139,206.139 230.5,208.5C 234.812,214.812 240.145,220.145 246.5,224.5C 248.167,228.167 250.833,230.833 254.5,232.5C 254.833,232.5 255.167,232.5 255.5,232.5C 258.614,237.182 257.28,239.849 251.5,240.5C 251.5,239.833 251.167,239.5 250.5,239.5C 247.145,236.143 244.145,232.476 241.5,228.5C 232.486,221.152 224.153,213.152 216.5,204.5C 215.859,203.518 215.193,202.518 214.5,201.5C 215.298,197.799 217.298,196.799 220.5,198.5 Z"/></g>
<g><path style="opacity:0.907" fill="#815d9a" d="M 292.5,179.5 C 292.833,179.5 293.167,179.5 293.5,179.5C 291.78,185.526 290.113,191.526 288.5,197.5C 287.778,197.918 287.278,198.584 287,199.5C 286.5,205.825 286.334,212.158 286.5,218.5C 284.804,218.315 283.471,217.481 282.5,216C 282.861,205.748 284.861,196.081 288.5,187C 287.72,185.927 287.887,184.76 289,183.5C 289.333,183.833 289.667,184.167 290,184.5C 290.847,182.807 291.68,181.14 292.5,179.5 Z"/></g>
<g><path style="opacity:1" fill="#3b2a4f" d="M 423.5,197.5 C 422.336,202.592 419.503,206.258 415,208.5C 414.667,209.5 414.333,210.5 414,211.5C 410.308,213.692 407.474,216.692 405.5,220.5C 403.199,221.325 400.865,221.992 398.5,222.5C 407.06,214.388 415.394,206.055 423.5,197.5 Z"/></g>
<g><path style="opacity:0.165" fill="#4a2f5b" d="M 270.5,193.5 C 270.331,198.181 269.998,202.848 269.5,207.5C 269.5,212.5 269.5,217.5 269.5,222.5C 268.835,218.849 268.501,215.015 268.5,211C 268.341,204.926 269.007,199.092 270.5,193.5 Z"/></g>
<g><path style="opacity:0.063" fill="#3d2351" d="M 288.5,197.5 C 287.557,204.144 287.391,210.811 288,217.5C 289.33,216.418 290.83,215.751 292.5,215.5C 292.611,216.117 292.944,216.617 293.5,217C 291.942,217.21 290.609,217.71 289.5,218.5C 288.833,218.5 288.167,218.5 287.5,218.5C 287.167,218.5 286.833,218.5 286.5,218.5C 286.334,212.158 286.5,205.825 287,199.5C 287.278,198.584 287.778,197.918 288.5,197.5 Z"/></g>
<g><path style="opacity:1" fill="#36234a" d="M 213.5,203.5 C 214.391,204.11 215.391,204.443 216.5,204.5C 224.153,213.152 232.486,221.152 241.5,228.5C 244.145,232.476 247.145,236.143 250.5,239.5C 241.253,233.445 233.086,226.112 226,217.5C 225.667,217.833 225.333,218.167 225,218.5C 224.065,215.898 222.232,214.398 219.5,214C 216.044,211.246 214.044,207.746 213.5,203.5 Z"/></g>
<g><path style="opacity:0.643" fill="#808280" d="M 230.5,208.5 C 236.242,213.575 241.575,218.908 246.5,224.5C 240.145,220.145 234.812,214.812 230.5,208.5 Z"/></g>
<g><path style="opacity:0.984" fill="#75588d" d="M 334.5,217.5 C 330.565,216.75 326.898,215.25 323.5,213C 315.816,211.166 308.149,211.333 300.5,213.5C 298.918,215.015 297.584,216.681 296.5,218.5C 294.167,218.5 291.833,218.5 289.5,218.5C 290.609,217.71 291.942,217.21 293.5,217C 292.944,216.617 292.611,216.117 292.5,215.5C 302.181,208.631 312.847,206.798 324.5,210C 328.439,211.791 331.772,214.291 334.5,217.5 Z"/></g>
<g><path style="opacity:1" fill="#543c7d" d="M 232.5,167.5 C 235.249,167.274 237.916,167.607 240.5,168.5C 241.641,170.421 241.808,172.421 241,174.5C 234.918,176.961 229.252,180.295 224,184.5C 223.428,187.707 221.595,189.374 218.5,189.5C 218.649,190.552 218.483,191.552 218,192.5C 214.641,195.371 212.808,199.038 212.5,203.5C 206.551,213.832 202.051,224.832 199,236.5C 198.009,244.651 198.676,252.651 201,260.5C 203.969,264.112 207.802,265.279 212.5,264C 215.167,263 217.833,262 220.5,261C 230.627,255.1 240.627,248.934 250.5,242.5C 254.625,241.71 258.625,241.71 262.5,242.5C 262.987,243.446 263.32,244.446 263.5,245.5C 262.483,248.156 261.483,250.822 260.5,253.5C 252,257.915 244,263.082 236.5,269C 230.321,271.92 223.988,274.586 217.5,277C 208.767,280.015 200.767,278.848 193.5,273.5C 190.719,268.667 188.219,263.667 186,258.5C 182.106,236.425 186.272,216.092 198.5,197.5C 199.377,195.272 200.71,193.272 202.5,191.5C 205.833,192.167 207.833,190.833 208.5,187.5C 210.987,186.424 213.32,185.09 215.5,183.5C 217.832,176 222.832,171.5 230.5,170C 231.381,169.292 232.047,168.458 232.5,167.5 Z"/></g>
<g><path style="opacity:1" fill="#8458a4" d="M 281.5,175.5 C 281.369,176.239 281.536,176.906 282,177.5C 286.094,174.918 289.594,175.584 292.5,179.5C 291.68,181.14 290.847,182.807 290,184.5C 289.667,184.167 289.333,183.833 289,183.5C 287.887,184.76 287.72,185.927 288.5,187C 284.861,196.081 282.861,205.748 282.5,216C 283.471,217.481 284.804,218.315 286.5,218.5C 286.833,218.5 287.167,218.5 287.5,218.5C 288.092,221.127 288.425,223.794 288.5,226.5C 287.262,224.786 286.595,222.786 286.5,220.5C 284.167,220.5 281.833,220.5 279.5,220.5C 279.737,217.788 279.737,215.288 279.5,213C 280,212.5 280.5,212 281,211.5C 281.207,205.3 282.373,199.3 284.5,193.5C 282.138,190.493 279.472,189.993 276.5,192C 275.75,196.324 274.083,200.157 271.5,203.5C 271.248,197.931 272.582,192.931 275.5,188.5C 276.041,185.792 276.708,183.126 277.5,180.5C 277.376,179.893 277.043,179.56 276.5,179.5C 276.989,176.676 278.656,175.343 281.5,175.5 Z"/></g>
<g><path style="opacity:1" fill="#8c5da9" d="M 334.5,217.5 C 337.973,219.637 340.306,222.637 341.5,226.5C 342.911,231.018 343.577,235.684 343.5,240.5C 343.536,245.638 342.869,250.638 341.5,255.5C 340.5,255.5 339.5,255.5 338.5,255.5C 343.947,245.147 343.78,234.814 338,224.5C 336.226,222.06 333.892,220.394 331,219.5C 328.904,220.715 329.071,221.549 331.5,222C 328.167,222.333 324.833,222.667 321.5,223C 330.554,229.902 332.887,238.736 328.5,249.5C 327.675,250.386 326.675,250.719 325.5,250.5C 328.932,245.197 329.432,238.864 327,231.5C 324.939,227.019 321.439,225.352 316.5,226.5C 315.508,224.974 314.008,224.307 312,224.5C 308.196,225.205 304.363,225.538 300.5,225.5C 299.905,222.683 298.572,220.35 296.5,218.5C 297.584,216.681 298.918,215.015 300.5,213.5C 308.149,211.333 315.816,211.166 323.5,213C 326.898,215.25 330.565,216.75 334.5,217.5 Z"/></g>
<g><path style="opacity:1" fill="#63428a" d="M 287.5,218.5 C 288.167,218.5 288.833,218.5 289.5,218.5C 291.833,218.5 294.167,218.5 296.5,218.5C 298.572,220.35 299.905,222.683 300.5,225.5C 295.337,226.678 292.67,230.011 292.5,235.5C 291.359,232.746 290.025,230.079 288.5,227.5C 288.5,227.167 288.5,226.833 288.5,226.5C 288.425,223.794 288.092,221.127 287.5,218.5 Z"/></g>
<g><path style="opacity:0.771" fill="#473a64" d="M 428.5,169.5 C 424.703,174.23 419.703,176.563 413.5,176.5C 407.811,176.468 402.145,176.134 396.5,175.5C 395.34,185.756 393.173,196.089 390,206.5C 381.507,226.108 367.674,231.274 348.5,222C 340.627,215.627 333.627,208.461 327.5,200.5C 329.783,200.608 331.783,201.441 333.5,203C 339.814,207.653 345.48,212.986 350.5,219C 354.387,221.439 359.221,223.272 365,224.5C 367.978,223.089 371.145,222.089 374.5,221.5C 378.883,218.052 382.716,214.052 386,209.5C 386.8,205.145 387.466,200.478 388,195.5C 389.167,193.667 390.333,191.833 391.5,190C 388.155,180.506 391.321,175.006 401,173.5C 406.146,174.471 411.313,174.637 416.5,174C 420.128,170.743 424.128,169.243 428.5,169.5 Z"/></g>
<g><path style="opacity:0.635" fill="#858785" d="M 246.5,224.5 C 249.548,226.882 252.215,229.548 254.5,232.5C 250.833,230.833 248.167,228.167 246.5,224.5 Z"/></g>
<g><path style="opacity:1" fill="#925db2" d="M 288.5,226.5 C 288.5,226.833 288.5,227.167 288.5,227.5C 288.179,228.817 287.846,230.151 287.5,231.5C 288.402,235.566 289.736,239.399 291.5,243C 290.675,244.688 289.675,244.855 288.5,243.5C 287.833,245.833 287.167,248.167 286.5,250.5C 284.931,249.286 284.098,247.619 284,245.5C 282.295,243.023 280.295,241.689 278,241.5C 277.685,238.628 277.185,235.795 276.5,233C 276.735,232.127 277.069,231.293 277.5,230.5C 275.929,227.891 274.429,225.224 273,222.5C 272.654,216.143 272.154,209.81 271.5,203.5C 274.083,200.157 275.75,196.324 276.5,192C 279.472,189.993 282.138,190.493 284.5,193.5C 282.373,199.3 281.207,205.3 281,211.5C 280.5,212 280,212.5 279.5,213C 279.737,215.288 279.737,217.788 279.5,220.5C 281.833,220.5 284.167,220.5 286.5,220.5C 286.595,222.786 287.262,224.786 288.5,226.5 Z"/></g>
<g><path style="opacity:1" fill="#925eb0" d="M 338.5,255.5 C 336.35,257.68 335.016,260.347 334.5,263.5C 333.167,263.5 331.833,263.5 330.5,263.5C 324.852,266.662 318.852,268.495 312.5,269C 311.167,268 309.833,267 308.5,266C 302.91,266.211 298.91,263.877 296.5,259C 293.336,258.875 292.336,257.542 293.5,255C 293.097,253.527 292.43,252.194 291.5,251C 292.83,249.367 293.496,247.867 293.5,246.5C 296.092,250.636 298.925,254.636 302,258.5C 303.019,257.313 304.186,256.313 305.5,255.5C 308.488,261.143 313.154,262.977 319.5,261C 320.721,258.966 322.055,257.133 323.5,255.5C 324.167,253.833 324.833,252.167 325.5,250.5C 326.675,250.719 327.675,250.386 328.5,249.5C 332.887,238.736 330.554,229.902 321.5,223C 324.833,222.667 328.167,222.333 331.5,222C 329.071,221.549 328.904,220.715 331,219.5C 333.892,220.394 336.226,222.06 338,224.5C 343.78,234.814 343.947,245.147 338.5,255.5 Z"/></g>
<g><path style="opacity:1" fill="#5b4173" d="M 316.5,226.5 C 308.672,226.942 301.339,229.109 294.5,233C 293.395,235.12 293.395,237.287 294.5,239.5C 292.896,238.713 292.229,237.38 292.5,235.5C 292.67,230.011 295.337,226.678 300.5,225.5C 304.363,225.538 308.196,225.205 312,224.5C 314.008,224.307 315.508,224.974 316.5,226.5 Z"/></g>
<g><path style="opacity:0.141" fill="#676767" d="M 486.5,224.5 C 486.833,224.5 487.167,224.5 487.5,224.5C 485.833,226.833 483.833,228.833 481.5,230.5C 482.419,227.911 484.086,225.911 486.5,224.5 Z"/></g>
<g><path style="opacity:0.286" fill="#7d7d7d" d="M 391.5,215.5 C 391.631,216.239 391.464,216.906 391,217.5C 383.578,225.427 375.745,232.76 367.5,239.5C 375.167,231.167 383.167,223.167 391.5,215.5 Z"/></g>
<g><path style="opacity:1" fill="#321a56" d="M 212.5,203.5 C 212.833,203.5 213.167,203.5 213.5,203.5C 214.044,207.746 216.044,211.246 219.5,214C 222.232,214.398 224.065,215.898 225,218.5C 225.333,218.167 225.667,217.833 226,217.5C 233.086,226.112 241.253,233.445 250.5,239.5C 251.167,239.5 251.5,239.833 251.5,240.5C 251.167,241.167 250.833,241.833 250.5,242.5C 240.627,248.934 230.627,255.1 220.5,261C 217.833,262 215.167,263 212.5,264C 207.802,265.279 203.969,264.112 201,260.5C 198.676,252.651 198.009,244.651 199,236.5C 202.051,224.832 206.551,213.832 212.5,203.5 Z"/></g>
<g><path style="opacity:1" fill="#49386d" d="M 269.5,224.5 C 271.696,232.072 274.696,239.405 278.5,246.5C 279.11,247.391 279.443,248.391 279.5,249.5C 278.163,248.685 277.163,247.518 276.5,246C 274.393,245.146 273.059,245.812 272.5,248C 273.414,249.406 274.08,250.906 274.5,252.5C 272.814,250.984 270.981,249.65 269,248.5C 267.541,248.808 266.374,249.475 265.5,250.5C 264.596,251.209 264.263,252.209 264.5,253.5C 263.5,253.5 262.5,253.5 261.5,253.5C 261.167,253.5 260.833,253.5 260.5,253.5C 261.483,250.822 262.483,248.156 263.5,245.5C 263.32,244.446 262.987,243.446 262.5,242.5C 258.625,241.71 254.625,241.71 250.5,242.5C 250.833,241.833 251.167,241.167 251.5,240.5C 257.28,239.849 258.614,237.182 255.5,232.5C 256.815,233.476 258.148,234.476 259.5,235.5C 262.339,233.58 265.339,231.913 268.5,230.5C 269.466,228.604 269.799,226.604 269.5,224.5 Z"/></g>
<g><path style="opacity:0.322" fill="#7f7f7e" d="M 367.5,239.5 C 367.631,240.239 367.464,240.906 367,241.5C 356.913,252.091 346.413,262.091 335.5,271.5C 345.833,260.5 356.5,249.833 367.5,239.5 Z"/></g>
<g><path style="opacity:1" fill="#a89eb2" d="M 265.5,250.5 C 267.5,253.5 269.5,256.5 271.5,259.5C 269.167,257.5 266.833,255.5 264.5,253.5C 264.263,252.209 264.596,251.209 265.5,250.5 Z"/></g>
<g><path style="opacity:0.804" fill="#77558d" d="M 316.5,226.5 C 321.439,225.352 324.939,227.019 327,231.5C 329.432,238.864 328.932,245.197 325.5,250.5C 324.833,252.167 324.167,253.833 323.5,255.5C 312.066,258.538 302.899,255.205 296,245.5C 295.51,244.207 295.343,242.873 295.5,241.5C 299.711,245.877 304.378,249.71 309.5,253C 317.274,255.519 322.774,253.019 326,245.5C 328.081,236.327 324.914,229.994 316.5,226.5 Z"/></g>
<g><path style="opacity:1" fill="#8d5faa" d="M 271.5,203.5 C 272.154,209.81 272.654,216.143 273,222.5C 274.429,225.224 275.929,227.891 277.5,230.5C 277.069,231.293 276.735,232.127 276.5,233C 277.185,235.795 277.685,238.628 278,241.5C 280.295,241.689 282.295,243.023 284,245.5C 284.098,247.619 284.931,249.286 286.5,250.5C 287.167,248.167 287.833,245.833 288.5,243.5C 289.675,244.855 290.675,244.688 291.5,243C 289.736,239.399 288.402,235.566 287.5,231.5C 287.846,230.151 288.179,228.817 288.5,227.5C 290.025,230.079 291.359,232.746 292.5,235.5C 292.229,237.38 292.896,238.713 294.5,239.5C 295.338,239.842 295.672,240.508 295.5,241.5C 295.343,242.873 295.51,244.207 296,245.5C 302.899,255.205 312.066,258.538 323.5,255.5C 322.055,257.133 320.721,258.966 319.5,261C 313.154,262.977 308.488,261.143 305.5,255.5C 304.186,256.313 303.019,257.313 302,258.5C 298.925,254.636 296.092,250.636 293.5,246.5C 293.496,247.867 292.83,249.367 291.5,251C 292.43,252.194 293.097,253.527 293.5,255C 292.336,257.542 293.336,258.875 296.5,259C 298.91,263.877 302.91,266.211 308.5,266C 309.833,267 311.167,268 312.5,269C 318.852,268.495 324.852,266.662 330.5,263.5C 325.472,268.994 319.138,271.161 311.5,270C 303.639,267.735 296.306,264.402 289.5,260C 287.845,258.556 287.178,256.722 287.5,254.5C 286.325,254.719 285.325,254.386 284.5,253.5C 283.838,249.849 281.838,247.516 278.5,246.5C 274.696,239.405 271.696,232.072 269.5,224.5C 269.5,223.833 269.5,223.167 269.5,222.5C 269.5,217.5 269.5,212.5 269.5,207.5C 270.167,206.167 270.833,204.833 271.5,203.5 Z"/></g>
<g><path style="opacity:0.635" fill="#8d8c8f" d="M 278.5,256.5 C 281.5,258.833 284.167,261.5 286.5,264.5C 282.833,262.833 280.167,260.167 278.5,256.5 Z"/></g>
<g><path style="opacity:1" fill="#3a2751" d="M 398.5,222.5 C 396.98,227.907 393.813,231.907 389,234.5C 388.563,237.772 386.73,239.439 383.5,239.5C 383.566,243.735 381.566,246.402 377.5,247.5C 375.585,251.73 372.585,254.73 368.5,256.5C 367.251,260.481 364.585,263.147 360.5,264.5C 358.813,268.187 356.146,270.854 352.5,272.5C 348.444,278.891 343.11,283.891 336.5,287.5C 335.833,289.167 335.167,290.833 334.5,292.5C 329.946,294.886 326.613,298.386 324.5,303C 322,303.5 319.5,304 317,304.5C 315.93,304.472 315.097,304.139 314.5,303.5C 315.978,303.762 317.311,303.429 318.5,302.5C 344.467,275.2 371.134,248.533 398.5,222.5 Z"/></g>
<g><path style="opacity:0.031" fill="#5e5e5e" d="M 489.5,259.5 C 491.027,259.427 492.027,260.094 492.5,261.5C 490.973,261.573 489.973,260.906 489.5,259.5 Z"/></g>
<g><path style="opacity:0.999" fill="#f7f7f8" d="M 489.5,259.5 C 489.973,260.906 490.973,261.573 492.5,261.5C 492.414,262.496 492.748,263.329 493.5,264C 495.405,265.421 497.405,266.588 499.5,267.5C 501.167,268.5 502.5,269.833 503.5,271.5C 504.833,273.5 506.5,275.167 508.5,276.5C 510.43,280.1 513.097,283.1 516.5,285.5C 517.08,287.749 518.413,289.415 520.5,290.5C 522.984,292.8 524.984,295.467 526.5,298.5C 526.427,300.027 527.094,301.027 528.5,301.5C 528.427,303.027 529.094,304.027 530.5,304.5C 530.427,306.027 531.094,307.027 532.5,307.5C 532.873,312.17 534.873,315.837 538.5,318.5C 538.387,321.049 539.054,323.382 540.5,325.5C 534.537,326.496 528.537,326.829 522.5,326.5C 522.25,324.326 521.25,322.659 519.5,321.5C 516.056,313.065 511.056,305.731 504.5,299.5C 502.845,296.847 500.845,294.514 498.5,292.5C 492.215,285.548 485.548,278.881 478.5,272.5C 477.833,271.833 477.167,271.167 476.5,270.5C 479.948,265.713 484.281,262.046 489.5,259.5 Z"/></g>
<g><path style="opacity:0.49" fill="#767676" d="M 492.5,261.5 C 495.432,262.8 497.766,264.8 499.5,267.5C 497.405,266.588 495.405,265.421 493.5,264C 492.748,263.329 492.414,262.496 492.5,261.5 Z"/></g>
<g><path style="opacity:0.994" fill="#725486" d="M 341.5,226.5 C 349.674,246.016 344.341,260.849 325.5,271C 305.205,274.557 289.872,267.39 279.5,249.5C 279.443,248.391 279.11,247.391 278.5,246.5C 281.838,247.516 283.838,249.849 284.5,253.5C 285.325,254.386 286.325,254.719 287.5,254.5C 287.178,256.722 287.845,258.556 289.5,260C 296.306,264.402 303.639,267.735 311.5,270C 319.138,271.161 325.472,268.994 330.5,263.5C 331.833,263.5 333.167,263.5 334.5,263.5C 335.016,260.347 336.35,257.68 338.5,255.5C 339.5,255.5 340.5,255.5 341.5,255.5C 342.869,250.638 343.536,245.638 343.5,240.5C 343.577,235.684 342.911,231.018 341.5,226.5 Z"/></g>
<g><path style="opacity:0.647" fill="#919090" d="M 286.5,264.5 C 289.167,266.5 291.5,268.833 293.5,271.5C 290.167,270.167 287.833,267.833 286.5,264.5 Z"/></g>
<g><path style="opacity:0.012" fill="#535353" d="M 503.5,271.5 C 506.167,272.167 507.833,273.833 508.5,276.5C 506.5,275.167 504.833,273.5 503.5,271.5 Z"/></g>
<g><path style="opacity:0.22" fill="#7c7e7d" d="M 335.5,271.5 C 333.234,275.436 330.234,278.769 326.5,281.5C 328.766,277.564 331.766,274.231 335.5,271.5 Z"/></g>
<g><path style="opacity:0.251" fill="#8e9189" d="M 296.5,274.5 C 301.5,278.833 306.167,283.5 310.5,288.5C 304.833,284.833 300.167,280.167 296.5,274.5 Z"/></g>
<g><path style="opacity:1" fill="#35214c" d="M 261.5,253.5 C 262.5,253.5 263.5,253.5 264.5,253.5C 266.833,255.5 269.167,257.5 271.5,259.5C 285.537,273.608 299.704,287.608 314,301.5C 314.464,302.094 314.631,302.761 314.5,303.5C 313.022,303.762 311.689,303.429 310.5,302.5C 306.202,297.866 301.869,293.2 297.5,288.5C 295.922,287.702 294.256,287.202 292.5,287C 291.017,282.079 287.684,279.246 282.5,278.5C 281.57,274.068 278.904,271.568 274.5,271C 272.578,269.58 271.245,267.747 270.5,265.5C 269.914,265.709 269.414,266.043 269,266.5C 264.17,263.51 261.67,259.177 261.5,253.5 Z"/></g>
<g><path style="opacity:0.616" fill="#838383" d="M 508.5,276.5 C 511.903,278.9 514.57,281.9 516.5,285.5C 513.097,283.1 510.43,280.1 508.5,276.5 Z"/></g>
<g><path style="opacity:1" fill="#3c2a4c" d="M 478.5,272.5 C 485.548,278.881 492.215,285.548 498.5,292.5C 490.91,289.753 484.91,284.92 480.5,278C 479.391,277.362 478.225,276.862 477,276.5C 473.389,279.052 469.889,281.718 466.5,284.5C 464.774,286.228 463.441,288.228 462.5,290.5C 459.431,291.403 457.098,293.236 455.5,296C 454.552,296.483 453.552,296.649 452.5,296.5C 459.91,288.589 467.576,280.755 475.5,273C 476.448,272.517 477.448,272.351 478.5,272.5 Z"/></g>
<g><path style="opacity:1" fill="#2f2139" d="M 478.5,233.5 C 477.978,236.253 477.144,238.92 476,241.5C 432.939,285.728 389.439,329.394 345.5,372.5C 345.754,369.986 346.587,367.652 348,365.5C 351.74,362.049 355.573,358.715 359.5,355.5C 361.703,353.705 362.869,351.371 363,348.5C 375.764,339.627 386.764,328.96 396,316.5C 400.116,314.428 403.283,311.428 405.5,307.5C 408.78,305.557 411.78,303.223 414.5,300.5C 419.111,293.886 424.111,287.552 429.5,281.5C 435.786,277.215 441.786,272.549 447.5,267.5C 449.995,265.341 451.661,262.674 452.5,259.5C 453.853,257.817 455.52,256.484 457.5,255.5C 458.429,254.311 458.762,252.978 458.5,251.5C 461.578,251.413 463.911,250.08 465.5,247.5C 469.415,245.092 472.915,242.092 476,238.5C 476.49,237.207 476.657,235.873 476.5,234.5C 477.167,234.167 477.833,233.833 478.5,233.5 Z"/></g>
<g><path style="opacity:0.482" fill="#858585" d="M 516.5,285.5 C 518.587,286.585 519.92,288.251 520.5,290.5C 518.413,289.415 517.08,287.749 516.5,285.5 Z"/></g>
<g><path style="opacity:0.286" fill="#828282" d="M 322.5,285.5 C 320.706,287.797 318.706,289.963 316.5,292C 314.537,292.844 313.204,292.344 312.5,290.5C 313.15,290.804 313.817,291.137 314.5,291.5C 316.921,289.066 319.588,287.066 322.5,285.5 Z"/></g>
<g><path style="opacity:0.353" fill="#646165" d="M 489.5,259.5 C 484.281,262.046 479.948,265.713 476.5,270.5C 463.5,282.833 450.833,295.5 438.5,308.5C 438.167,308.5 437.833,308.5 437.5,308.5C 452.245,292.252 467.579,276.419 483.5,261C 485.01,260.15 486.51,259.317 488,258.5C 488.765,258.57 489.265,258.903 489.5,259.5 Z"/></g>
<g><path style="opacity:0.988" fill="#c9c1cf" d="M 476.5,270.5 C 477.167,271.167 477.833,271.833 478.5,272.5C 477.448,272.351 476.448,272.517 475.5,273C 467.576,280.755 459.91,288.589 452.5,296.5C 449.998,298.17 447.998,300.336 446.5,303C 443.935,305.08 441.268,306.913 438.5,308.5C 450.833,295.5 463.5,282.833 476.5,270.5 Z"/></g>
<g><path style="opacity:1" fill="#311954" d="M 498.5,292.5 C 500.845,294.514 502.845,296.847 504.5,299.5C 505.06,301.801 505.56,304.134 506,306.5C 510.245,311.295 514.078,316.295 517.5,321.5C 517.548,324.313 518.215,326.979 519.5,329.5C 517.365,330.645 515.199,330.645 513,329.5C 511.941,329.63 511.108,330.13 510.5,331C 492.161,331.607 473.827,331.94 455.5,332C 452.872,329.939 452.205,327.439 453.5,324.5C 451.028,323.104 448.362,322.27 445.5,322C 443.321,321.558 442.655,320.558 443.5,319C 442.062,318.781 440.729,318.281 439.5,317.5C 440.641,316.575 440.641,315.741 439.5,315C 441.852,312.46 444.185,309.96 446.5,307.5C 447.176,304.904 448.676,302.904 451,301.5C 451.608,299.846 452.108,298.179 452.5,296.5C 453.552,296.649 454.552,296.483 455.5,296C 457.098,293.236 459.431,291.403 462.5,290.5C 463.441,288.228 464.774,286.228 466.5,284.5C 469.889,281.718 473.389,279.052 477,276.5C 478.225,276.862 479.391,277.362 480.5,278C 484.91,284.92 490.91,289.753 498.5,292.5 Z"/></g>
<g><path style="opacity:1" fill="#321d48" d="M 465.5,247.5 C 463.911,250.08 461.578,251.413 458.5,251.5C 458.762,252.978 458.429,254.311 457.5,255.5C 455.52,256.484 453.853,257.817 452.5,259.5C 451.661,262.674 449.995,265.341 447.5,267.5C 441.786,272.549 435.786,277.215 429.5,281.5C 424.111,287.552 419.111,293.886 414.5,300.5C 411.78,303.223 408.78,305.557 405.5,307.5C 403.283,311.428 400.116,314.428 396,316.5C 386.764,328.96 375.764,339.627 363,348.5C 362.869,351.371 361.703,353.705 359.5,355.5C 355.573,358.715 351.74,362.049 348,365.5C 346.587,367.652 345.754,369.986 345.5,372.5C 343.167,373.167 340.833,373.833 338.5,374.5C 341.241,371.239 343.408,367.572 345,363.5C 347.452,360.461 350.452,358.127 354,356.5C 357.061,353.263 359.561,349.596 361.5,345.5C 363.262,345.643 364.929,345.309 366.5,344.5C 369.5,342.167 372.167,339.5 374.5,336.5C 375.325,335.614 376.325,335.281 377.5,335.5C 377.281,334.325 377.614,333.325 378.5,332.5C 385.991,326.902 391.491,320.236 395,312.5C 396.049,313.517 397.216,313.684 398.5,313C 401.241,308.589 404.908,305.256 409.5,303C 411.301,299.537 413.468,296.37 416,293.5C 418.878,291.411 421.545,289.077 424,286.5C 425.726,281.94 428.892,278.94 433.5,277.5C 435.522,274.644 438.022,272.311 441,270.5C 441.609,267.39 443.443,265.39 446.5,264.5C 450.205,259.803 453.872,255.136 457.5,250.5C 460.035,249.1 462.702,248.1 465.5,247.5 Z"/></g>
<g><path style="opacity:0.224" fill="#707070" d="M 526.5,298.5 C 527.906,298.973 528.573,299.973 528.5,301.5C 527.094,301.027 526.427,300.027 526.5,298.5 Z"/></g>
<g><path style="opacity:0.173" fill="#707070" d="M 528.5,301.5 C 529.906,301.973 530.573,302.973 530.5,304.5C 529.094,304.027 528.427,303.027 528.5,301.5 Z"/></g>
<g><path style="opacity:0.137" fill="#696969" d="M 530.5,304.5 C 531.906,304.973 532.573,305.973 532.5,307.5C 531.094,307.027 530.427,306.027 530.5,304.5 Z"/></g>
<g><path style="opacity:1" fill="#433252" d="M 504.5,299.5 C 511.056,305.731 516.056,313.065 519.5,321.5C 518.833,321.5 518.167,321.5 517.5,321.5C 514.078,316.295 510.245,311.295 506,306.5C 505.56,304.134 505.06,301.801 504.5,299.5 Z"/></g>
<g><path style="opacity:0.784" fill="#999999" d="M 532.5,307.5 C 535.258,310.678 537.258,314.345 538.5,318.5C 534.873,315.837 532.873,312.17 532.5,307.5 Z"/></g>
<g><path style="opacity:0.949" fill="#30253a" d="M 239.5,318.5 C 239.5,318.833 239.5,319.167 239.5,319.5C 243.77,325.605 248.937,330.938 255,335.5C 255.49,336.793 255.657,338.127 255.5,339.5C 243.484,329.317 232.317,318.317 222,306.5C 221.825,311.019 221.325,315.353 220.5,319.5C 220.167,319.5 219.833,319.5 219.5,319.5C 219.5,314.167 219.5,308.833 219.5,303.5C 224.799,306.274 229.466,310.107 233.5,315C 235.24,316.694 237.24,317.861 239.5,318.5 Z"/></g>
<g><path style="opacity:0.472" fill="#9e9e9e" d="M 538.5,318.5 C 540.625,321.088 541.958,324.088 542.5,327.5C 541.5,327.5 540.5,327.5 539.5,327.5C 533.642,327.822 527.975,327.489 522.5,326.5C 528.537,326.829 534.537,326.496 540.5,325.5C 539.054,323.382 538.387,321.049 538.5,318.5 Z"/></g>
<g><path style="opacity:1" fill="#311c48" d="M 446.5,307.5 C 444.185,309.96 441.852,312.46 439.5,315C 440.641,315.741 440.641,316.575 439.5,317.5C 440.729,318.281 442.062,318.781 443.5,319C 442.655,320.558 443.321,321.558 445.5,322C 448.362,322.27 451.028,323.104 453.5,324.5C 452.205,327.439 452.872,329.939 455.5,332C 473.827,331.94 492.161,331.607 510.5,331C 511.108,330.13 511.941,329.63 513,329.5C 515.199,330.645 517.365,330.645 519.5,329.5C 518.215,326.979 517.548,324.313 517.5,321.5C 518.167,321.5 518.833,321.5 519.5,321.5C 520.188,324.718 521.188,327.884 522.5,331C 522.415,332.107 522.081,333.107 521.5,334C 498.833,334.667 476.167,334.667 453.5,334C 452.221,332.354 450.555,331.187 448.5,330.5C 448.145,326.44 445.978,324.107 442,323.5C 436.397,316.093 437.897,310.76 446.5,307.5 Z"/></g>
<g><path style="opacity:0.922" fill="#30233b" d="M 452.5,296.5 C 452.108,298.179 451.608,299.846 451,301.5C 448.676,302.904 447.176,304.904 446.5,307.5C 437.897,310.76 436.397,316.093 442,323.5C 445.978,324.107 448.145,326.44 448.5,330.5C 450.555,331.187 452.221,332.354 453.5,334C 476.167,334.667 498.833,334.667 521.5,334C 522.081,333.107 522.415,332.107 522.5,331C 521.188,327.884 520.188,324.718 519.5,321.5C 521.25,322.659 522.25,324.326 522.5,326.5C 527.975,327.489 533.642,327.822 539.5,327.5C 535.03,328.486 530.363,328.819 525.5,328.5C 525.472,330.582 526.139,332.416 527.5,334C 526.833,334.667 526.167,335.333 525.5,336C 500.83,337.974 476.164,337.974 451.5,336C 445.576,330.072 439.076,324.906 432,320.5C 431.5,319.5 431,318.5 430.5,317.5C 432.506,314.171 434.839,311.171 437.5,308.5C 437.833,308.5 438.167,308.5 438.5,308.5C 441.268,306.913 443.935,305.08 446.5,303C 447.998,300.336 449.998,298.17 452.5,296.5 Z"/></g>
<g><path style="opacity:0.92" fill="#2f1c41" d="M 223.5,302.5 C 226.841,305.287 230.341,307.954 234,310.5C 235.722,313.363 237.555,316.03 239.5,318.5C 237.24,317.861 235.24,316.694 233.5,315C 229.466,310.107 224.799,306.274 219.5,303.5C 219.5,308.833 219.5,314.167 219.5,319.5C 219.5,356.833 219.5,394.167 219.5,431.5C 218.833,431.5 218.167,431.5 217.5,431.5C 217.333,388.832 217.5,346.165 218,303.5C 219.699,302.594 221.533,302.261 223.5,302.5 Z"/></g>
<g><path style="opacity:1" fill="#321d4d" d="M 239.5,319.5 C 240.873,319.343 242.207,319.51 243.5,320C 246.829,324.076 250.663,327.576 255,330.5C 255.45,332.519 256.283,334.352 257.5,336C 262.663,337.143 266.663,339.977 269.5,344.5C 272.149,344.08 274.816,344.58 277.5,346C 276.833,347 276.167,348 275.5,349C 276.893,350.171 277.727,351.671 278,353.5C 282.192,355.544 284.692,358.878 285.5,363.5C 286.086,363.291 286.586,362.957 287,362.5C 287.273,364.101 287.773,365.601 288.5,367C 290.256,367.202 291.922,367.702 293.5,368.5C 296.637,370.92 299.637,373.586 302.5,376.5C 303.474,378.743 303.808,381.076 303.5,383.5C 304.873,383.343 306.207,383.51 307.5,384C 309.672,386.17 311.672,388.503 313.5,391C 315.365,392.301 317.365,392.635 319.5,392C 324.346,388.166 328.012,383.5 330.5,378C 333.505,377.467 336.172,376.3 338.5,374.5C 337.415,377.668 335.249,379.668 332,380.5C 328.991,386.109 324.825,390.609 319.5,394C 314.948,394.555 311.615,392.722 309.5,388.5C 307.833,387.833 306.167,387.167 304.5,386.5C 296.115,377.943 288.115,368.943 280.5,359.5C 274.064,354.591 268.064,349.258 262.5,343.5C 261.311,342.571 259.978,342.238 258.5,342.5C 257.167,341.833 256.167,340.833 255.5,339.5C 255.657,338.127 255.49,336.793 255,335.5C 248.937,330.938 243.77,325.605 239.5,319.5 Z"/></g>
<g><path style="opacity:0.682" fill="#b7b4ba" d="M 553.5,362.5 C 553.5,363.833 553.5,365.167 553.5,366.5C 552.596,365.791 552.263,364.791 552.5,363.5C 496.833,363.5 441.167,363.5 385.5,363.5C 385.5,364.833 385.5,366.167 385.5,367.5C 436.336,367.168 487.003,367.501 537.5,368.5C 486.5,368.5 435.5,368.5 384.5,368.5C 384.5,366.5 384.5,364.5 384.5,362.5C 440.833,361.167 497.167,361.167 553.5,362.5 Z"/></g>
<g><path style="opacity:0.999" fill="#f5f4f5" d="M 553.5,366.5 C 554.024,368.306 554.691,369.972 555.5,371.5C 556.43,375.4 556.763,379.4 556.5,383.5C 556.666,395.528 556.166,407.528 555,419.5C 553.291,426.754 552.124,434.088 551.5,441.5C 551.5,441.833 551.5,442.167 551.5,442.5C 550.21,443.058 549.377,444.058 549,445.5C 548.148,449.189 547.315,452.856 546.5,456.5C 543.082,461.722 540.416,467.389 538.5,473.5C 534.961,476.669 532.961,480.669 532.5,485.5C 530.05,487.629 528.383,490.296 527.5,493.5C 527.573,495.027 526.906,496.027 525.5,496.5C 523.738,497.262 522.738,498.596 522.5,500.5C 522.5,500.833 522.5,501.167 522.5,501.5C 520.5,501.5 519.5,502.5 519.5,504.5C 519.5,505.167 519.167,505.5 518.5,505.5C 516.413,506.585 515.08,508.251 514.5,510.5C 514.167,511.5 513.5,512.167 512.5,512.5C 509.427,514.569 507.094,517.236 505.5,520.5C 502.821,520.525 501.488,521.858 501.5,524.5C 500.5,525.167 499.5,525.833 498.5,526.5C 496.833,526.5 495.167,526.5 493.5,526.5C 493.5,527.833 493.5,529.167 493.5,530.5C 492.738,532.262 491.404,533.262 489.5,533.5C 486.573,534.097 484.573,535.764 483.5,538.5C 483.158,539.338 482.492,539.672 481.5,539.5C 476.657,541.418 472.323,544.084 468.5,547.5C 466.821,547.285 465.821,547.952 465.5,549.5C 462.485,551.674 459.151,553.341 455.5,554.5C 449.121,556.067 443.121,558.4 437.5,561.5C 433.521,561.742 429.854,562.742 426.5,564.5C 425.791,565.404 424.791,565.737 423.5,565.5C 417.806,565.24 412.473,566.24 407.5,568.5C 389.657,571.316 371.99,570.982 354.5,567.5C 350.458,565.763 346.124,564.763 341.5,564.5C 339.485,563.076 337.152,562.41 334.5,562.5C 334.167,562.5 333.833,562.5 333.5,562.5C 329.618,559.102 324.951,557.435 319.5,557.5C 316.503,554.504 312.836,552.837 308.5,552.5C 305.515,551.674 302.849,550.341 300.5,548.5C 298.127,544.977 294.794,542.977 290.5,542.5C 288.754,540.466 288.42,538.299 289.5,536C 287.893,535.885 286.393,536.385 285,537.5C 283.594,536.586 282.094,535.92 280.5,535.5C 279.738,533.738 278.404,532.738 276.5,532.5C 275.415,530.413 273.749,529.08 271.5,528.5C 270.5,528.167 269.833,527.5 269.5,526.5C 267.761,523.757 265.427,521.757 262.5,520.5C 260.552,517.536 258.552,514.536 256.5,511.5C 255.423,510.295 254.09,509.628 252.5,509.5C 251.753,506.638 250.086,504.638 247.5,503.5C 245.221,498.588 242.221,494.255 238.5,490.5C 236.056,486.588 234.389,482.255 233.5,477.5C 235.167,475.167 237.167,473.167 239.5,471.5C 242.412,469.934 245.079,467.934 247.5,465.5C 248.298,465.957 248.631,466.624 248.5,467.5C 243.873,470.265 241.706,474.265 242,479.5C 246.611,487.269 251.778,494.603 257.5,501.5C 265.936,512.606 275.936,521.939 287.5,529.5C 291.098,532.313 294.765,535.147 298.5,538C 307.265,542.613 316.265,546.78 325.5,550.5C 325.414,551.496 325.748,552.329 326.5,553C 332.204,553.677 337.871,554.511 343.5,555.5C 346.478,556.745 349.311,558.412 352,560.5C 355.441,559.618 358.941,559.284 362.5,559.5C 373.167,559.5 383.833,559.5 394.5,559.5C 400.198,559.404 405.865,558.904 411.5,558C 412.416,557.722 413.082,557.222 413.5,556.5C 414.167,556.5 414.833,556.5 415.5,556.5C 423.468,555.456 431.135,553.289 438.5,550C 439.942,549.623 440.942,548.79 441.5,547.5C 444.298,546.35 446.965,545.017 449.5,543.5C 475.76,530.907 497.093,512.574 513.5,488.5C 516.281,486.046 518.281,483.046 519.5,479.5C 519.888,476.319 521.222,473.652 523.5,471.5C 525.755,469.469 527.088,466.802 527.5,463.5C 529.774,455.678 532.44,448.012 535.5,440.5C 537.803,434.149 539.136,427.483 539.5,420.5C 539.5,417.5 539.5,414.5 539.5,411.5C 540.659,401.008 540.825,390.341 540,379.5C 539.205,375.688 538.371,372.021 537.5,368.5C 487.003,367.501 436.336,367.168 385.5,367.5C 385.5,366.167 385.5,364.833 385.5,363.5C 441.167,363.5 496.833,363.5 552.5,363.5C 552.263,364.791 552.596,365.791 553.5,366.5 Z"/></g>
<g><path style="opacity:1" fill="#312142" d="M 384.5,362.5 C 384.5,364.5 384.5,366.5 384.5,368.5C 435.5,368.5 486.5,368.5 537.5,368.5C 538.919,382.794 539.585,397.128 539.5,411.5C 539.5,414.5 539.5,417.5 539.5,420.5C 537.159,426.838 535.826,433.505 535.5,440.5C 532.44,448.012 529.774,455.678 527.5,463.5C 527.167,463.5 526.833,463.5 526.5,463.5C 528.983,454.914 531.483,446.248 534,437.5C 537.388,419.127 538.221,400.794 536.5,382.5C 536.5,381.5 536.5,380.5 536.5,379.5C 536.834,376.812 536.168,374.479 534.5,372.5C 534.389,371.883 534.056,371.383 533.5,371C 483.497,370.167 433.497,370.333 383.5,371.5C 382.902,372.795 382.402,374.128 382,375.5C 381.315,393.845 381.482,412.178 382.5,430.5C 410.074,430.828 437.574,430.495 465,429.5C 466.622,430.099 468.122,430.766 469.5,431.5C 440.329,431.169 411.329,431.502 382.5,432.5C 381.542,432.047 380.708,431.381 380,430.5C 379.333,411.167 379.333,391.833 380,372.5C 381.253,368.999 382.753,365.665 384.5,362.5 Z"/></g>
<g><path style="opacity:0.173" fill="#616161" d="M 553.5,362.5 C 554.913,365.219 555.58,368.219 555.5,371.5C 554.691,369.972 554.024,368.306 553.5,366.5C 553.5,365.167 553.5,363.833 553.5,362.5 Z"/></g>
<g><path style="opacity:1" fill="#311b50" d="M 534.5,372.5 C 536.168,374.479 536.834,376.812 536.5,379.5C 535.609,378.739 534.942,377.739 534.5,376.5C 531.893,375.682 529.226,375.182 526.5,375C 513.493,374.661 500.493,374.161 487.5,373.5C 457.834,374.824 428.167,374.824 398.5,373.5C 395.5,373.833 392.5,374.167 389.5,374.5C 390.609,376.214 389.942,376.881 387.5,376.5C 387.896,379.044 387.229,381.211 385.5,383C 386.653,393.757 386.82,404.59 386,415.5C 385.5,416 385,416.5 384.5,417C 386.134,417.494 387.801,417.66 389.5,417.5C 389.643,419.262 389.309,420.929 388.5,422.5C 389.376,423.251 390.376,423.751 391.5,424C 385.771,424.672 385.437,425.672 390.5,427C 417.19,427.602 443.857,427.602 470.5,427C 471.211,428.255 472.044,429.421 473,430.5C 473.232,434.555 473.732,438.555 474.5,442.5C 473.311,443.429 471.978,443.762 470.5,443.5C 469.234,446.301 468.401,449.301 468,452.5C 465.325,455.209 462.658,457.876 460,460.5C 458.387,466.894 454.553,471.394 448.5,474C 443.637,479.861 438.47,485.361 433,490.5C 430.846,489.774 428.346,489.607 425.5,490C 417.763,494.162 409.93,497.662 402,500.5C 400.395,499.899 399.062,498.899 398,497.5C 394.178,500.151 390.178,502.484 386,504.5C 384.566,504.07 383.399,503.236 382.5,502C 375.086,502.013 367.92,500.846 361,498.5C 360.439,499.022 359.772,499.355 359,499.5C 351.435,497.206 343.935,494.206 336.5,490.5C 344.298,492.812 352.298,494.646 360.5,496C 362.935,496.853 365.269,497.853 367.5,499C 375.179,499.626 382.846,499.96 390.5,500C 391.5,499 392.5,498 393.5,497C 396.365,496.817 399.031,496.317 401.5,495.5C 401.611,494.883 401.944,494.383 402.5,494C 408.969,492.8 415.303,491.133 421.5,489C 424.924,485.741 428.924,483.408 433.5,482C 432.944,481.617 432.611,481.117 432.5,480.5C 432.5,479.833 432.833,479.5 433.5,479.5C 433.56,480.043 433.893,480.376 434.5,480.5C 436.115,479.846 437.782,479.346 439.5,479C 443.37,474.129 447.87,469.962 453,466.5C 455.227,461.934 458.56,458.268 463,455.5C 464.044,453.285 464.71,450.952 465,448.5C 470.905,444.407 473.072,438.74 471.5,431.5C 469.987,429.759 467.987,428.759 465.5,428.5C 438.177,429.778 410.844,429.778 383.5,428.5C 383.333,410.164 383.5,391.83 384,373.5C 384.75,372.874 385.584,372.374 386.5,372C 435.862,371.181 485.195,371.347 534.5,372.5 Z"/></g>
<g><path style="opacity:1" fill="#321a4c" d="M 223.5,302.5 C 221.533,302.261 219.699,302.594 218,303.5C 217.5,346.165 217.333,388.832 217.5,431.5C 214.8,435.033 212.3,438.699 210,442.5C 207.535,444.72 204.702,446.386 201.5,447.5C 199.819,451.181 197.152,453.848 193.5,455.5C 193.215,453.712 193.548,452.045 194.5,450.5C 201.47,443.917 208.303,437.25 215,430.5C 215.182,392.981 215.682,355.481 216.5,318C 214.539,311.944 214.372,305.778 216,299.5C 216.837,297.993 218.004,297.493 219.5,298C 218.112,298.889 218.278,299.389 220,299.5C 221.162,298.813 222.328,298.647 223.5,299C 222.829,299.986 222.829,301.153 223.5,302.5 Z"/></g>
<g><path style="opacity:1" fill="#301c46" d="M 534.5,372.5 C 485.195,371.347 435.862,371.181 386.5,372C 385.584,372.374 384.75,372.874 384,373.5C 383.5,391.83 383.333,410.164 383.5,428.5C 410.844,429.778 438.177,429.778 465.5,428.5C 467.987,428.759 469.987,429.759 471.5,431.5C 470.833,431.5 470.167,431.5 469.5,431.5C 468.122,430.766 466.622,430.099 465,429.5C 437.574,430.495 410.074,430.828 382.5,430.5C 381.482,412.178 381.315,393.845 382,375.5C 382.402,374.128 382.902,372.795 383.5,371.5C 433.497,370.333 483.497,370.167 533.5,371C 534.056,371.383 534.389,371.883 534.5,372.5 Z"/></g>
<g><path style="opacity:0.537" fill="#33273c" d="M 258.5,342.5 C 259.978,342.238 261.311,342.571 262.5,343.5C 268.064,349.258 274.064,354.591 280.5,359.5C 288.115,368.943 296.115,377.943 304.5,386.5C 306.167,387.167 307.833,387.833 309.5,388.5C 311.615,392.722 314.948,394.555 319.5,394C 324.825,390.609 328.991,386.109 332,380.5C 335.249,379.668 337.415,377.668 338.5,374.5C 340.833,373.833 343.167,373.167 345.5,372.5C 337.032,380.135 329.032,388.302 321.5,397C 319.788,398.751 317.788,399.418 315.5,399C 296.048,380.715 277.048,361.881 258.5,342.5 Z"/></g>
<g><path style="opacity:1" fill="#311955" d="M 536.5,379.5 C 536.5,380.5 536.5,381.5 536.5,382.5C 535.686,395.092 535.186,407.758 535,420.5C 533.581,430.798 531.248,440.798 528,450.5C 526.807,452.605 525.14,454.272 523,455.5C 521.178,459.103 521.011,462.77 522.5,466.5C 519.402,471.446 517.069,476.779 515.5,482.5C 511.887,482.78 509.887,484.78 509.5,488.5C 504.781,489.604 502.114,492.604 501.5,497.5C 500.311,498.429 498.978,498.762 497.5,498.5C 497.714,500.144 497.38,501.644 496.5,503C 494.193,503.309 492.026,504.142 490,505.5C 489.667,505.167 489.333,504.833 489,504.5C 486.449,507.206 485.449,510.206 486,513.5C 484.235,516.016 482.402,518.516 480.5,521C 476.212,522.812 472.212,524.979 468.5,527.5C 467.996,530.342 466.329,531.675 463.5,531.5C 463.5,532.833 463.5,534.167 463.5,535.5C 459.43,536.356 455.43,537.523 451.5,539C 449.963,540.11 449.297,541.61 449.5,543.5C 446.482,543.335 443.482,543.502 440.5,544C 438.431,545.523 436.097,546.357 433.5,546.5C 431.068,546.012 429.568,545.012 429,543.5C 425.015,544.659 420.848,544.825 416.5,544C 416.043,544.414 415.709,544.914 415.5,545.5C 424.646,547.753 424.313,549.42 414.5,550.5C 414.773,548.549 414.107,547.049 412.5,546C 405.222,545.056 398.222,544.222 391.5,543.5C 391.5,544.5 391.5,545.5 391.5,546.5C 381.973,545.976 372.473,545.976 363,546.5C 360.485,546.276 357.985,545.943 355.5,545.5C 354.006,545.291 352.839,544.624 352,543.5C 351.57,546.192 351.737,548.859 352.5,551.5C 354.917,552.777 352.917,552.777 346.5,551.5C 342.966,547.989 338.8,546.989 334,548.5C 332.566,548.07 331.399,547.236 330.5,546C 334.509,543.616 338.676,543.116 343,544.5C 343.498,541.518 343.665,538.518 343.5,535.5C 346.167,535.5 348.833,535.5 351.5,535.5C 351.5,533.5 351.5,531.5 351.5,529.5C 372.782,527.835 394.115,526.835 415.5,526.5C 415.5,524.167 415.5,521.833 415.5,519.5C 420.833,519.5 426.167,519.5 431.5,519.5C 431.5,516.833 431.5,514.167 431.5,511.5C 434.167,511.5 436.833,511.5 439.5,511.5C 439.5,506.167 439.5,500.833 439.5,495.5C 442.167,495.5 444.833,495.5 447.5,495.5C 447.5,492.833 447.5,490.167 447.5,487.5C 450.167,487.5 452.833,487.5 455.5,487.5C 455.337,485.143 455.503,482.81 456,480.5C 457.011,479.663 458.178,479.33 459.5,479.5C 461.778,474.493 463.112,469.159 463.5,463.5C 466.167,463.5 468.833,463.5 471.5,463.5C 471.5,460.833 471.5,458.167 471.5,455.5C 474.167,455.5 476.833,455.5 479.5,455.5C 479.833,450.167 480.167,444.833 480.5,439.5C 482.833,439.5 485.167,439.5 487.5,439.5C 487.5,434.833 487.5,430.167 487.5,425.5C 484.833,425.5 482.167,425.5 479.5,425.5C 479.664,422.813 479.497,420.146 479,417.5C 449.26,417.563 419.427,417.563 389.5,417.5C 387.801,417.66 386.134,417.494 384.5,417C 385,416.5 385.5,416 386,415.5C 386.82,404.59 386.653,393.757 385.5,383C 387.229,381.211 387.896,379.044 387.5,376.5C 389.942,376.881 390.609,376.214 389.5,374.5C 392.5,374.167 395.5,373.833 398.5,373.5C 428.167,374.824 457.834,374.824 487.5,373.5C 500.493,374.161 513.493,374.661 526.5,375C 529.226,375.182 531.893,375.682 534.5,376.5C 534.942,377.739 535.609,378.739 536.5,379.5 Z"/></g>
<g><path style="opacity:1" fill="#685d73" d="M 537.5,368.5 C 538.371,372.021 539.205,375.688 540,379.5C 540.825,390.341 540.659,401.008 539.5,411.5C 539.585,397.128 538.919,382.794 537.5,368.5 Z"/></g>
<g><path style="opacity:0.506" fill="#3d2e43" d="M 219.5,319.5 C 219.833,319.5 220.167,319.5 220.5,319.5C 221.481,356.162 221.647,392.829 221,429.5C 220.79,431.058 220.29,432.391 219.5,433.5C 219.5,432.833 219.5,432.167 219.5,431.5C 219.5,394.167 219.5,356.833 219.5,319.5 Z"/></g>
<g><path style="opacity:0.18" fill="#666666" d="M 556.5,383.5 C 558.476,403.125 556.809,422.458 551.5,441.5C 552.124,434.088 553.291,426.754 555,419.5C 556.166,407.528 556.666,395.528 556.5,383.5 Z"/></g>
<g><path style="opacity:1" fill="#321c4d" d="M 536.5,382.5 C 538.221,400.794 537.388,419.127 534,437.5C 531.483,446.248 528.983,454.914 526.5,463.5C 524.97,464.211 523.637,465.211 522.5,466.5C 521.011,462.77 521.178,459.103 523,455.5C 525.14,454.272 526.807,452.605 528,450.5C 531.248,440.798 533.581,430.798 535,420.5C 535.186,407.758 535.686,395.092 536.5,382.5 Z"/></g>
<g><path style="opacity:1" fill="#93879b" d="M 539.5,420.5 C 539.136,427.483 537.803,434.149 535.5,440.5C 535.826,433.505 537.159,426.838 539.5,420.5 Z"/></g>
<g><path style="opacity:0.522" fill="#908e8e" d="M 285.5,427.5 C 285.784,429.415 285.451,431.081 284.5,432.5C 284.657,431.127 284.49,429.793 284,428.5C 280.902,432.107 277.402,435.107 273.5,437.5C 276.65,433.006 280.65,429.672 285.5,427.5 Z"/></g>
<g><path style="opacity:1" fill="#352645" d="M 285.5,427.5 C 287.735,428.228 289.568,429.561 291,431.5C 293.355,438.072 296.188,444.405 299.5,450.5C 298.021,449.241 296.354,448.241 294.5,447.5C 292.108,443.06 289.441,438.727 286.5,434.5C 280.817,439.921 275.151,445.254 269.5,450.5C 268.264,451.246 266.93,451.579 265.5,451.5C 271.473,444.86 277.806,438.527 284.5,432.5C 285.451,431.081 285.784,429.415 285.5,427.5 Z"/></g>
<g><path style="opacity:0.982" fill="#e9e4eb" d="M 284.5,432.5 C 277.806,438.527 271.473,444.86 265.5,451.5C 260.859,455.805 256.193,460.139 251.5,464.5C 249.952,464.179 249.285,463.179 249.5,461.5C 255.167,457.833 259.833,453.167 263.5,447.5C 267.167,445.833 269.833,443.167 271.5,439.5C 271.833,438.5 272.5,437.833 273.5,437.5C 277.402,435.107 280.902,432.107 284,428.5C 284.49,429.793 284.657,431.127 284.5,432.5 Z"/></g>
<g><path style="opacity:0.624" fill="#2a1d34" d="M 217.5,431.5 C 218.167,431.5 218.833,431.5 219.5,431.5C 219.5,432.167 219.5,432.833 219.5,433.5C 201.194,452.14 182.861,470.807 164.5,489.5C 162.901,489.768 161.568,489.434 160.5,488.5C 165.992,485.677 169.659,481.344 171.5,475.5C 174.382,475.392 176.715,474.226 178.5,472C 183.394,466.279 188.394,460.779 193.5,455.5C 197.152,453.848 199.819,451.181 201.5,447.5C 204.702,446.386 207.535,444.72 210,442.5C 212.3,438.699 214.8,435.033 217.5,431.5 Z"/></g>
<g><path style="opacity:0.475" fill="#9a999a" d="M 271.5,439.5 C 269.833,443.167 267.167,445.833 263.5,447.5C 265.833,444.5 268.5,441.833 271.5,439.5 Z"/></g>
<g><path style="opacity:0.18" fill="#6d6d6d" d="M 551.5,442.5 C 550.431,447.479 548.765,452.146 546.5,456.5C 547.315,452.856 548.148,449.189 549,445.5C 549.377,444.058 550.21,443.058 551.5,442.5 Z"/></g>
<g><path style="opacity:0.4" fill="#9e9d9c" d="M 263.5,447.5 C 259.833,453.167 255.167,457.833 249.5,461.5C 253.833,456.5 258.5,451.833 263.5,447.5 Z"/></g>
<g><path style="opacity:0.667" fill="#2e2339" d="M 382.5,432.5 C 411.329,431.502 440.329,431.169 469.5,431.5C 470.167,431.5 470.833,431.5 471.5,431.5C 473.072,438.74 470.905,444.407 465,448.5C 464.71,450.952 464.044,453.285 463,455.5C 458.56,458.268 455.227,461.934 453,466.5C 447.87,469.962 443.37,474.129 439.5,479C 437.782,479.346 436.115,479.846 434.5,480.5C 433.893,480.376 433.56,480.043 433.5,479.5C 449.911,468.083 461.911,453.083 469.5,434.5C 440.504,433.608 411.504,432.941 382.5,432.5 Z"/></g>
<g><path style="opacity:0.478" fill="#b5b0b5" d="M 249.5,461.5 C 249.285,463.179 249.952,464.179 251.5,464.5C 250.833,465.833 249.833,466.833 248.5,467.5C 248.631,466.624 248.298,465.957 247.5,465.5C 245.079,467.934 242.412,469.934 239.5,471.5C 242.5,467.833 245.833,464.5 249.5,461.5 Z"/></g>
<g><path style="opacity:1" fill="#a498a9" d="M 526.5,463.5 C 526.833,463.5 527.167,463.5 527.5,463.5C 527.088,466.802 525.755,469.469 523.5,471.5C 524.501,468.828 525.501,466.162 526.5,463.5 Z"/></g>
<g><path style="opacity:1" fill="#311954" d="M 389.5,417.5 C 419.427,417.563 449.26,417.563 479,417.5C 479.497,420.146 479.664,422.813 479.5,425.5C 482.167,425.5 484.833,425.5 487.5,425.5C 487.5,430.167 487.5,434.833 487.5,439.5C 485.167,439.5 482.833,439.5 480.5,439.5C 480.167,444.833 479.833,450.167 479.5,455.5C 476.833,455.5 474.167,455.5 471.5,455.5C 471.5,458.167 471.5,460.833 471.5,463.5C 468.833,463.5 466.167,463.5 463.5,463.5C 463.112,469.159 461.778,474.493 459.5,479.5C 458.178,479.33 457.011,479.663 456,480.5C 455.503,482.81 455.337,485.143 455.5,487.5C 452.833,487.5 450.167,487.5 447.5,487.5C 447.5,490.167 447.5,492.833 447.5,495.5C 444.833,495.5 442.167,495.5 439.5,495.5C 439.5,500.833 439.5,506.167 439.5,511.5C 436.833,511.5 434.167,511.5 431.5,511.5C 431.5,514.167 431.5,516.833 431.5,519.5C 426.167,519.5 420.833,519.5 415.5,519.5C 415.5,521.833 415.5,524.167 415.5,526.5C 394.115,526.835 372.782,527.835 351.5,529.5C 351.5,531.5 351.5,533.5 351.5,535.5C 348.833,535.5 346.167,535.5 343.5,535.5C 343.665,538.518 343.498,541.518 343,544.5C 338.676,543.116 334.509,543.616 330.5,546C 331.399,547.236 332.566,548.07 334,548.5C 338.8,546.989 342.966,547.989 346.5,551.5C 352.917,552.777 354.917,552.777 352.5,551.5C 351.737,548.859 351.57,546.192 352,543.5C 352.839,544.624 354.006,545.291 355.5,545.5C 357.985,545.943 360.485,546.276 363,546.5C 372.473,545.976 381.973,545.976 391.5,546.5C 391.5,545.5 391.5,544.5 391.5,543.5C 398.222,544.222 405.222,545.056 412.5,546C 414.107,547.049 414.773,548.549 414.5,550.5C 424.313,549.42 424.646,547.753 415.5,545.5C 415.709,544.914 416.043,544.414 416.5,544C 420.848,544.825 425.015,544.659 429,543.5C 429.568,545.012 431.068,546.012 433.5,546.5C 425.72,549.038 418.054,551.871 410.5,555C 396.193,556.51 381.859,557.176 367.5,557C 354.681,555.148 342.014,552.482 329.5,549C 324.516,546.007 319.183,544.007 313.5,543C 309.786,538.898 305.119,536.898 299.5,537C 298.5,535.333 297.5,533.667 296.5,532C 293.454,531.261 290.454,530.428 287.5,529.5C 285.629,527.768 284.296,525.602 283.5,523C 279.711,520.717 276.045,518.217 272.5,515.5C 271.833,512.167 269.833,510.167 266.5,509.5C 264.83,507.327 263.163,505.16 261.5,503C 260.255,502.209 258.922,501.709 257.5,501.5C 257.481,499.94 257.148,498.44 256.5,497C 252.125,491.085 248.125,484.918 244.5,478.5C 246.04,472.793 249.54,468.793 255,466.5C 255.715,462.286 258.215,459.953 262.5,459.5C 264.076,457.021 265.076,454.354 265.5,451.5C 266.93,451.579 268.264,451.246 269.5,450.5C 275.151,445.254 280.817,439.921 286.5,434.5C 289.441,438.727 292.108,443.06 294.5,447.5C 295.304,452.012 296.97,456.512 299.5,461C 299.043,461.414 298.709,461.914 298.5,462.5C 300.108,463.318 301.775,463.985 303.5,464.5C 304.39,467.557 306.39,469.391 309.5,470C 311.667,473.5 314.5,476.333 318,478.5C 319.128,480.345 319.628,482.345 319.5,484.5C 321.857,484.337 324.19,484.503 326.5,485C 329.473,487.491 332.807,489.324 336.5,490.5C 343.935,494.206 351.435,497.206 359,499.5C 359.772,499.355 360.439,499.022 361,498.5C 367.92,500.846 375.086,502.013 382.5,502C 383.399,503.236 384.566,504.07 386,504.5C 390.178,502.484 394.178,500.151 398,497.5C 399.062,498.899 400.395,499.899 402,500.5C 409.93,497.662 417.763,494.162 425.5,490C 428.346,489.607 430.846,489.774 433,490.5C 438.47,485.361 443.637,479.861 448.5,474C 454.553,471.394 458.387,466.894 460,460.5C 462.658,457.876 465.325,455.209 468,452.5C 468.401,449.301 469.234,446.301 470.5,443.5C 471.978,443.762 473.311,443.429 474.5,442.5C 473.732,438.555 473.232,434.555 473,430.5C 472.044,429.421 471.211,428.255 470.5,427C 443.857,427.602 417.19,427.602 390.5,427C 385.437,425.672 385.771,424.672 391.5,424C 390.376,423.751 389.376,423.251 388.5,422.5C 389.309,420.929 389.643,419.262 389.5,417.5 Z"/></g>
<g><path style="opacity:0.647" fill="#31233c" d="M 303.5,457.5 C 308.806,463.473 314.473,469.14 320.5,474.5C 317.401,476.2 315.401,475.2 314.5,471.5C 312.247,470.747 310.413,469.414 309,467.5C 307.064,464.185 305.231,460.852 303.5,457.5 Z"/></g>
<g><path style="opacity:1" fill="#311d48" d="M 294.5,447.5 C 296.354,448.241 298.021,449.241 299.5,450.5C 301.098,452.698 302.431,455.031 303.5,457.5C 305.231,460.852 307.064,464.185 309,467.5C 310.413,469.414 312.247,470.747 314.5,471.5C 315.401,475.2 317.401,476.2 320.5,474.5C 323.205,476.512 325.872,478.512 328.5,480.5C 328.539,481.583 328.873,482.583 329.5,483.5C 332.255,484.631 334.589,486.298 336.5,488.5C 350.294,493.051 364.461,496.051 379,497.5C 386.469,496.449 393.969,495.783 401.5,495.5C 399.031,496.317 396.365,496.817 393.5,497C 392.5,498 391.5,499 390.5,500C 382.846,499.96 375.179,499.626 367.5,499C 365.269,497.853 362.935,496.853 360.5,496C 352.298,494.646 344.298,492.812 336.5,490.5C 332.807,489.324 329.473,487.491 326.5,485C 324.19,484.503 321.857,484.337 319.5,484.5C 319.628,482.345 319.128,480.345 318,478.5C 314.5,476.333 311.667,473.5 309.5,470C 306.39,469.391 304.39,467.557 303.5,464.5C 301.775,463.985 300.108,463.318 298.5,462.5C 298.709,461.914 299.043,461.414 299.5,461C 296.97,456.512 295.304,452.012 294.5,447.5 Z"/></g>
<g><path style="opacity:0.2" fill="#8e8e8e" d="M 233.5,477.5 C 234.389,482.255 236.056,486.588 238.5,490.5C 234.215,486.967 232.548,482.633 233.5,477.5 Z"/></g>
<g><path style="opacity:0.255" fill="#7f7f7f" d="M 546.5,456.5 C 543.678,467.142 539.011,476.809 532.5,485.5C 532.961,480.669 534.961,476.669 538.5,473.5C 540.416,467.389 543.082,461.722 546.5,456.5 Z"/></g>
<g><path style="opacity:1" fill="#3a2a4b" d="M 265.5,451.5 C 265.076,454.354 264.076,457.021 262.5,459.5C 258.215,459.953 255.715,462.286 255,466.5C 249.54,468.793 246.04,472.793 244.5,478.5C 248.125,484.918 252.125,491.085 256.5,497C 257.148,498.44 257.481,499.94 257.5,501.5C 251.778,494.603 246.611,487.269 242,479.5C 241.706,474.265 243.873,470.265 248.5,467.5C 249.833,466.833 250.833,465.833 251.5,464.5C 256.193,460.139 260.859,455.805 265.5,451.5 Z"/></g>
<g><path style="opacity:1" fill="#8b7e95" d="M 519.5,479.5 C 518.281,483.046 516.281,486.046 513.5,488.5C 514.791,484.903 516.791,481.903 519.5,479.5 Z"/></g>
<g><path style="opacity:0.165" fill="#6d6c6d" d="M 532.5,485.5 C 531.617,488.704 529.95,491.371 527.5,493.5C 528.383,490.296 530.05,487.629 532.5,485.5 Z"/></g>
<g><path style="opacity:0.953" fill="#9a9b9b" d="M 152.5,488.5 C 151.89,489.391 151.557,490.391 151.5,491.5C 150.415,493.587 148.749,494.92 146.5,495.5C 148.85,493.787 149.85,491.453 149.5,488.5C 150.5,488.5 151.5,488.5 152.5,488.5 Z"/></g>
<g><path style="opacity:0.757" fill="#2f203b" d="M 328.5,480.5 C 363.109,500.444 397.775,500.444 432.5,480.5C 432.611,481.117 432.944,481.617 433.5,482C 428.924,483.408 424.924,485.741 421.5,489C 415.303,491.133 408.969,492.8 402.5,494C 401.944,494.383 401.611,494.883 401.5,495.5C 393.969,495.783 386.469,496.449 379,497.5C 364.461,496.051 350.294,493.051 336.5,488.5C 334.589,486.298 332.255,484.631 329.5,483.5C 328.873,482.583 328.539,481.583 328.5,480.5 Z"/></g>
<g><path style="opacity:0.596" fill="#878588" d="M 238.5,490.5 C 242.221,494.255 245.221,498.588 247.5,503.5C 243.763,499.698 240.763,495.365 238.5,490.5 Z"/></g>
<g><path style="opacity:0.027" fill="#676767" d="M 525.5,496.5 C 525.262,498.404 524.262,499.738 522.5,500.5C 522.738,498.596 523.738,497.262 525.5,496.5 Z"/></g>
<g><path style="opacity:0.075" fill="#575757" d="M 522.5,501.5 C 521.833,502.833 520.833,503.833 519.5,504.5C 519.5,502.5 520.5,501.5 522.5,501.5 Z"/></g>
<g><path style="opacity:1" fill="#35224a" d="M 526.5,463.5 C 525.501,466.162 524.501,468.828 523.5,471.5C 521.222,473.652 519.888,476.319 519.5,479.5C 516.791,481.903 514.791,484.903 513.5,488.5C 497.093,512.574 475.76,530.907 449.5,543.5C 449.297,541.61 449.963,540.11 451.5,539C 455.43,537.523 459.43,536.356 463.5,535.5C 463.5,534.167 463.5,532.833 463.5,531.5C 466.329,531.675 467.996,530.342 468.5,527.5C 472.212,524.979 476.212,522.812 480.5,521C 482.402,518.516 484.235,516.016 486,513.5C 485.449,510.206 486.449,507.206 489,504.5C 489.333,504.833 489.667,505.167 490,505.5C 492.026,504.142 494.193,503.309 496.5,503C 497.38,501.644 497.714,500.144 497.5,498.5C 498.978,498.762 500.311,498.429 501.5,497.5C 502.114,492.604 504.781,489.604 509.5,488.5C 509.887,484.78 511.887,482.78 515.5,482.5C 517.069,476.779 519.402,471.446 522.5,466.5C 523.637,465.211 524.97,464.211 526.5,463.5 Z"/></g>
<g><path style="opacity:0.373" fill="#86838b" d="M 247.5,503.5 C 250.086,504.638 251.753,506.638 252.5,509.5C 250.11,508.109 248.443,506.109 247.5,503.5 Z"/></g>
<g><path style="opacity:0.043" fill="#606060" d="M 518.5,505.5 C 517.92,507.749 516.587,509.415 514.5,510.5C 515.08,508.251 516.413,506.585 518.5,505.5 Z"/></g>
<g><path style="opacity:1" fill="#3b2b4e" d="M 257.5,501.5 C 258.922,501.709 260.255,502.209 261.5,503C 263.163,505.16 264.83,507.327 266.5,509.5C 269.833,510.167 271.833,512.167 272.5,515.5C 276.045,518.217 279.711,520.717 283.5,523C 284.296,525.602 285.629,527.768 287.5,529.5C 275.936,521.939 265.936,512.606 257.5,501.5 Z"/></g>
<g><path style="opacity:0.302" fill="#8e8e8d" d="M 252.5,509.5 C 254.09,509.628 255.423,510.295 256.5,511.5C 258.552,514.536 260.552,517.536 262.5,520.5C 258.456,517.457 255.123,513.791 252.5,509.5 Z"/></g>
<g><path style="opacity:0.012" fill="#595959" d="M 512.5,512.5 C 510.906,515.764 508.573,518.431 505.5,520.5C 507.094,517.236 509.427,514.569 512.5,512.5 Z"/></g>
<g><path style="opacity:0.431" fill="#777672" d="M 262.5,520.5 C 265.427,521.757 267.761,523.757 269.5,526.5C 266.573,525.243 264.239,523.243 262.5,520.5 Z"/></g>
<g><path style="opacity:0.224" fill="#6c6c6c" d="M 505.5,520.5 C 504.5,522.167 503.167,523.5 501.5,524.5C 501.488,521.858 502.821,520.525 505.5,520.5 Z"/></g>
<g><path style="opacity:0.973" fill="#a4a4a4" d="M 498.5,526.5 C 497.415,528.587 495.749,529.92 493.5,530.5C 493.5,529.167 493.5,527.833 493.5,526.5C 495.167,526.5 496.833,526.5 498.5,526.5 Z"/></g>
<g><path style="opacity:0.427" fill="#747473" d="M 271.5,528.5 C 273.749,529.08 275.415,530.413 276.5,532.5C 274.251,531.92 272.585,530.587 271.5,528.5 Z"/></g>
<g><path style="opacity:0.294" fill="#6d6c6a" d="M 276.5,532.5 C 278.404,532.738 279.738,533.738 280.5,535.5C 278.596,535.262 277.262,534.262 276.5,532.5 Z"/></g>
<g><path style="opacity:1" fill="#b3b5b3" d="M 280.5,535.5 C 282.094,535.92 283.594,536.586 285,537.5C 286.393,536.385 287.893,535.885 289.5,536C 288.42,538.299 288.754,540.466 290.5,542.5C 286.608,540.938 283.275,538.605 280.5,535.5 Z"/></g>
<g><path style="opacity:0.145" fill="#878787" d="M 489.5,533.5 C 488.109,535.89 486.109,537.557 483.5,538.5C 484.573,535.764 486.573,534.097 489.5,533.5 Z"/></g>
<g><path style="opacity:0.776" fill="#919190" d="M 290.5,542.5 C 294.794,542.977 298.127,544.977 300.5,548.5C 296.827,547 293.494,545 290.5,542.5 Z"/></g>
<g><path style="opacity:0.114" fill="#7f7f80" d="M 481.5,539.5 C 477.701,542.952 473.368,545.618 468.5,547.5C 472.323,544.084 476.657,541.418 481.5,539.5 Z"/></g>
<g><path style="opacity:0.306" fill="#757575" d="M 468.5,547.5 C 468.027,548.906 467.027,549.573 465.5,549.5C 465.821,547.952 466.821,547.285 468.5,547.5 Z"/></g>
<g><path style="opacity:1" fill="#ccc3d0" d="M 325.5,550.5 C 331.688,551.877 337.688,553.544 343.5,555.5C 337.871,554.511 332.204,553.677 326.5,553C 325.748,552.329 325.414,551.496 325.5,550.5 Z"/></g>
<g><path style="opacity:0.784" fill="#959596" d="M 308.5,552.5 C 312.836,552.837 316.503,554.504 319.5,557.5C 315.407,556.618 311.74,554.951 308.5,552.5 Z"/></g>
<g><path style="opacity:1" fill="#b8afbe" d="M 441.5,547.5 C 440.942,548.79 439.942,549.623 438.5,550C 431.135,553.289 423.468,555.456 415.5,556.5C 424.065,553.532 432.732,550.532 441.5,547.5 Z"/></g>
<g><path style="opacity:0.149" fill="#747574" d="M 455.5,554.5 C 449.879,557.6 443.879,559.933 437.5,561.5C 443.121,558.4 449.121,556.067 455.5,554.5 Z"/></g>
<g><path style="opacity:1" fill="#39264b" d="M 287.5,529.5 C 290.454,530.428 293.454,531.261 296.5,532C 297.5,533.667 298.5,535.333 299.5,537C 305.119,536.898 309.786,538.898 313.5,543C 319.183,544.007 324.516,546.007 329.5,549C 342.014,552.482 354.681,555.148 367.5,557C 381.859,557.176 396.193,556.51 410.5,555C 418.054,551.871 425.72,549.038 433.5,546.5C 436.097,546.357 438.431,545.523 440.5,544C 443.482,543.502 446.482,543.335 449.5,543.5C 446.965,545.017 444.298,546.35 441.5,547.5C 432.732,550.532 424.065,553.532 415.5,556.5C 414.833,556.5 414.167,556.5 413.5,556.5C 406.992,557.237 400.659,558.237 394.5,559.5C 383.833,559.5 373.167,559.5 362.5,559.5C 356.328,557.931 349.995,556.598 343.5,555.5C 337.688,553.544 331.688,551.877 325.5,550.5C 316.265,546.78 307.265,542.613 298.5,538C 294.765,535.147 291.098,532.313 287.5,529.5 Z"/></g>
<g><path style="opacity:1" fill="#d1c5d4" d="M 343.5,555.5 C 349.995,556.598 356.328,557.931 362.5,559.5C 358.941,559.284 355.441,559.618 352,560.5C 349.311,558.412 346.478,556.745 343.5,555.5 Z"/></g>
<g><path style="opacity:1" fill="#b8aebf" d="M 413.5,556.5 C 413.082,557.222 412.416,557.722 411.5,558C 405.865,558.904 400.198,559.404 394.5,559.5C 400.659,558.237 406.992,557.237 413.5,556.5 Z"/></g>
<g><path style="opacity:0.624" fill="#9fa0a0" d="M 319.5,557.5 C 324.951,557.435 329.618,559.102 333.5,562.5C 328.607,561.204 323.94,559.538 319.5,557.5 Z"/></g>
<g><path style="opacity:0.427" fill="#7c7d7c" d="M 334.5,562.5 C 337.152,562.41 339.485,563.076 341.5,564.5C 338.848,564.59 336.515,563.924 334.5,562.5 Z"/></g>
<g><path style="opacity:0.075" fill="#606060" d="M 437.5,561.5 C 434.201,563.483 430.534,564.483 426.5,564.5C 429.854,562.742 433.521,561.742 437.5,561.5 Z"/></g>
<g><path style="opacity:0.169" fill="#6f6f6e" d="M 341.5,564.5 C 346.124,564.763 350.458,565.763 354.5,567.5C 349.876,567.237 345.542,566.237 341.5,564.5 Z"/></g>
<g><path style="opacity:0.235" fill="#7e7d7d" d="M 423.5,565.5 C 418.401,567.101 413.067,568.101 407.5,568.5C 412.473,566.24 417.806,565.24 423.5,565.5 Z"/></g>
</svg>
